<?xml version="1.0" encoding="UTF-8" standalone="no"?>
<!DOCTYPE svg PUBLIC "-//W3C//DTD SVG 1.1//EN"
 "http://www.w3.org/Graphics/SVG/1.1/DTD/svg11.dtd">
<!-- Generated by graphviz version 5.0.0 (20220707.1540)
 -->
<!-- Title: dependencies Pages: 1 -->
<svg width="444pt" height="247pt"
 viewBox="0.00 0.00 444.00 246.80" xmlns="http://www.w3.org/2000/svg" xmlns:xlink="http://www.w3.org/1999/xlink">
<g id="graph0" class="graph" transform="scale(1 1) rotate(0) translate(4 242.8)">
<title>dependencies</title>
<polygon fill="white" stroke="transparent" points="-4,4 -4,-242.8 440,-242.8 440,4 -4,4"/>
<text text-anchor="middle" x="218" y="-8.2" font-family="sans-serif" font-size="14.00">dependencies</text>
<g id="clust1" class="cluster">
<title>cluster_HealthUsersGrpcModule</title>
<polygon fill="none" stroke="black" stroke-dasharray="1,5" points="8,-32.8 8,-230.8 428,-230.8 428,-32.8 8,-32.8"/>
</g>
<g id="clust6" class="cluster">
<title>cluster_HealthUsersGrpcModule_providers</title>
<polygon fill="none" stroke="black" points="178,-40.8 178,-92.8 420,-92.8 420,-40.8 178,-40.8"/>
</g>
<g id="clust3" class="cluster">
<title>cluster_HealthUsersGrpcModule_imports</title>
<polygon fill="none" stroke="black" points="16,-40.8 16,-92.8 170,-92.8 170,-40.8 16,-40.8"/>
</g>
<g id="clust4" class="cluster">
<title>cluster_HealthUsersGrpcModule_exports</title>
<polygon fill="none" stroke="black" points="111,-170.8 111,-222.8 295,-222.8 295,-170.8 111,-170.8"/>
</g>
<!-- ConfigurationModule -->
<g id="node1" class="node">
<title>ConfigurationModule</title>
<polygon fill="#8dd3c7" stroke="black" points="162.1,-84.8 159.1,-88.8 138.1,-88.8 135.1,-84.8 23.9,-84.8 23.9,-48.8 162.1,-48.8 162.1,-84.8"/>
<text text-anchor="middle" x="93" y="-62.6" font-family="Times,serif" font-size="14.00">ConfigurationModule</text>
</g>
<!-- HealthUsersGrpcModule -->
<g id="node2" class="node">
<title>HealthUsersGrpcModule</title>
<polygon fill="#8dd3c7" stroke="black" points="281.24,-149.8 278.24,-153.8 257.24,-153.8 254.24,-149.8 124.76,-149.8 124.76,-113.8 281.24,-113.8 281.24,-149.8"/>
<text text-anchor="middle" x="203" y="-127.6" font-family="Times,serif" font-size="14.00">HealthUsersGrpcModule</text>
</g>
<!-- ConfigurationModule&#45;&gt;HealthUsersGrpcModule -->
<g id="edge1" class="edge">
<title>ConfigurationModule&#45;&gt;HealthUsersGrpcModule</title>
<path fill="none" stroke="black" d="M143.34,-84.91C143.34,-84.91 143.34,-103.79 143.34,-103.79"/>
<polygon fill="black" stroke="black" points="139.84,-103.79 143.34,-113.79 146.84,-103.79 139.84,-103.79"/>
</g>
<!-- UsersGrpcHealthIndicator  -->
<g id="node3" class="node">
<title>UsersGrpcHealthIndicator </title>
<polygon fill="#fb8072" stroke="black" points="286.72,-214.8 119.28,-214.8 119.28,-178.8 286.72,-178.8 286.72,-214.8"/>
<text text-anchor="middle" x="203" y="-192.6" font-family="Times,serif" font-size="14.00">UsersGrpcHealthIndicator </text>
</g>
<!-- HealthUsersGrpcModule&#45;&gt;UsersGrpcHealthIndicator  -->
<g id="edge2" class="edge">
<title>HealthUsersGrpcModule&#45;&gt;UsersGrpcHealthIndicator </title>
<path fill="none" stroke="black" stroke-dasharray="5,2" d="M203,-149.91C203,-149.91 203,-168.79 203,-168.79"/>
<polygon fill="black" stroke="black" points="199.5,-168.79 203,-178.79 206.5,-168.79 199.5,-168.79"/>
</g>
<!-- UsersGrpcHealthIndicator -->
<g id="node4" class="node">
<title>UsersGrpcHealthIndicator</title>
<ellipse fill="#fdb462" stroke="black" cx="299" cy="-66.8" rx="112.86" ry="18"/>
<text text-anchor="middle" x="299" y="-62.6" font-family="Times,serif" font-size="14.00">UsersGrpcHealthIndicator</text>
</g>
<!-- UsersGrpcHealthIndicator&#45;&gt;HealthUsersGrpcModule -->
<g id="edge3" class="edge">
<title>UsersGrpcHealthIndicator&#45;&gt;HealthUsersGrpcModule</title>
<path fill="none" stroke="black" d="M233.72,-81.55C233.72,-81.55 233.72,-103.39 233.72,-103.39"/>
<polygon fill="black" stroke="black" points="230.22,-103.39 233.72,-113.39 237.22,-103.39 230.22,-103.39"/>
</g>
</g>
</svg>
