<?xml version="1.0" encoding="UTF-8" standalone="no"?>
<!DOCTYPE svg PUBLIC "-//W3C//DTD SVG 1.1//EN"
 "http://www.w3.org/Graphics/SVG/1.1/DTD/svg11.dtd">
<!-- Generated by graphviz version 5.0.0 (20220707.1540)
 -->
<!-- Title: dependencies Pages: 1 -->
<svg width="444pt" height="247pt"
 viewBox="0.00 0.00 444.00 246.80" xmlns="http://www.w3.org/2000/svg" xmlns:xlink="http://www.w3.org/1999/xlink">
<g id="graph0" class="graph" transform="scale(1 1) rotate(0) translate(4 242.8)">
<title>dependencies</title>
<polygon fill="white" stroke="transparent" points="-4,4 -4,-242.8 440,-242.8 440,4 -4,4"/>
<text text-anchor="middle" x="218" y="-8.2" font-family="sans-serif" font-size="14.00">dependencies</text>
<g id="clust1" class="cluster">
<title>cluster_HealthUsersGrpcModule</title>
<polygon fill="none" stroke="black" stroke-dasharray="1,5" points="8,-32.8 8,-230.8 428,-230.8 428,-32.8 8,-32.8"/>
</g>
<g id="clust3" class="cluster">
<title>cluster_HealthUsersGrpcModule_imports</title>
<polygon fill="none" stroke="black" points="266,-40.8 266,-92.8 420,-92.8 420,-40.8 266,-40.8"/>
</g>
<g id="clust6" class="cluster">
<title>cluster_HealthUsersGrpcModule_providers</title>
<polygon fill="none" stroke="black" points="16,-40.8 16,-92.8 258,-92.8 258,-40.8 16,-40.8"/>
</g>
<g id="clust4" class="cluster">
<title>cluster_HealthUsersGrpcModule_exports</title>
<polygon fill="none" stroke="black" points="140,-170.8 140,-222.8 324,-222.8 324,-170.8 140,-170.8"/>
</g>
<!-- ConfigurationModule -->
<g id="node1" class="node">
<title>ConfigurationModule</title>
<polygon fill="#8dd3c7" stroke="black" points="412.1,-84.8 409.1,-88.8 388.1,-88.8 385.1,-84.8 273.9,-84.8 273.9,-48.8 412.1,-48.8 412.1,-84.8"/>
<text text-anchor="middle" x="343" y="-62.6" font-family="Times,serif" font-size="14.00">ConfigurationModule</text>
</g>
<!-- HealthUsersGrpcModule -->
<g id="node2" class="node">
<title>HealthUsersGrpcModule</title>
<polygon fill="#8dd3c7" stroke="black" points="310.24,-149.8 307.24,-153.8 286.24,-153.8 283.24,-149.8 153.76,-149.8 153.76,-113.8 310.24,-113.8 310.24,-149.8"/>
<text text-anchor="middle" x="232" y="-127.6" font-family="Times,serif" font-size="14.00">HealthUsersGrpcModule</text>
</g>
<!-- ConfigurationModule&#45;&gt;HealthUsersGrpcModule -->
<g id="edge1" class="edge">
<title>ConfigurationModule&#45;&gt;HealthUsersGrpcModule</title>
<path fill="none" stroke="black" d="M292.16,-84.91C292.16,-84.91 292.16,-103.79 292.16,-103.79"/>
<polygon fill="black" stroke="black" points="288.66,-103.79 292.16,-113.79 295.66,-103.79 288.66,-103.79"/>
</g>
<!-- UsersGrpcHealthIndicator  -->
<g id="node3" class="node">
<title>UsersGrpcHealthIndicator </title>
<polygon fill="#fb8072" stroke="black" points="315.72,-214.8 148.28,-214.8 148.28,-178.8 315.72,-178.8 315.72,-214.8"/>
<text text-anchor="middle" x="232" y="-192.6" font-family="Times,serif" font-size="14.00">UsersGrpcHealthIndicator </text>
</g>
<!-- HealthUsersGrpcModule&#45;&gt;UsersGrpcHealthIndicator  -->
<g id="edge2" class="edge">
<title>HealthUsersGrpcModule&#45;&gt;UsersGrpcHealthIndicator </title>
<path fill="none" stroke="black" stroke-dasharray="5,2" d="M232,-149.91C232,-149.91 232,-168.79 232,-168.79"/>
<polygon fill="black" stroke="black" points="228.5,-168.79 232,-178.79 235.5,-168.79 228.5,-168.79"/>
</g>
<!-- UsersGrpcHealthIndicator -->
<g id="node4" class="node">
<title>UsersGrpcHealthIndicator</title>
<ellipse fill="#fdb462" stroke="black" cx="137" cy="-66.8" rx="112.86" ry="18"/>
<text text-anchor="middle" x="137" y="-62.6" font-family="Times,serif" font-size="14.00">UsersGrpcHealthIndicator</text>
</g>
<!-- UsersGrpcHealthIndicator&#45;&gt;HealthUsersGrpcModule -->
<g id="edge3" class="edge">
<title>UsersGrpcHealthIndicator&#45;&gt;HealthUsersGrpcModule</title>
<path fill="none" stroke="black" d="M201.78,-81.55C201.78,-81.55 201.78,-103.39 201.78,-103.39"/>
<polygon fill="black" stroke="black" points="198.28,-103.39 201.78,-113.39 205.28,-103.39 198.28,-103.39"/>
</g>
</g>
</svg>
