<?xml version="1.0" encoding="UTF-8" standalone="no"?>
<!DOCTYPE svg PUBLIC "-//W3C//DTD SVG 1.1//EN"
 "http://www.w3.org/Graphics/SVG/1.1/DTD/svg11.dtd">
<!-- Generated by graphviz version 5.0.0 (20220707.1540)
 -->
<!-- Title: dependencies Pages: 1 -->
<svg width="3972pt" height="315pt"
 viewBox="0.00 0.00 3972.00 314.80" xmlns="http://www.w3.org/2000/svg" xmlns:xlink="http://www.w3.org/1999/xlink">
<g id="graph0" class="graph" transform="scale(1 1) rotate(0) translate(4 310.8)">
<title>dependencies</title>
<polygon fill="white" stroke="transparent" points="-4,4 -4,-310.8 3968,-310.8 3968,4 -4,4"/>
<text text-anchor="middle" x="1982" y="-8.2" font-family="sans-serif" font-size="14.00">dependencies</text>
<g id="clust1" class="cluster">
<title>cluster_AppModule</title>
<polygon fill="none" stroke="black" stroke-dasharray="1,5" points="8,-32.8 8,-298.8 716,-298.8 716,-32.8 8,-32.8"/>
</g>
<g id="clust3" class="cluster">
<title>cluster_AppModule_imports</title>
<polygon fill="none" stroke="black" points="16,-40.8 16,-233.8 696,-233.8 696,-40.8 16,-40.8"/>
</g>
<g id="clust7" class="cluster">
<title>cluster_ConfigurationModule</title>
<polygon fill="none" stroke="black" stroke-dasharray="1,5" points="724,-97.8 724,-165.8 3956,-165.8 3956,-97.8 724,-97.8"/>
</g>
<g id="clust10" class="cluster">
<title>cluster_ConfigurationModule_exports</title>
<polygon fill="none" stroke="black" points="732,-105.8 732,-157.8 3948,-157.8 3948,-105.8 732,-105.8"/>
</g>
<g id="clust13" class="cluster">
<title>cluster_GuardsModule</title>
<polygon fill="none" stroke="black" stroke-dasharray="1,5" points="724,-173.8 724,-241.8 854,-241.8 854,-173.8 724,-173.8"/>
</g>
<g id="clust16" class="cluster">
<title>cluster_GuardsModule_exports</title>
<polygon fill="none" stroke="black" points="732,-181.8 732,-233.8 846,-233.8 846,-181.8 732,-181.8"/>
</g>
<g id="clust19" class="cluster">
<title>cluster_HealthAuthenticationModule</title>
<polygon fill="none" stroke="black" stroke-dasharray="1,5" points="862,-173.8 862,-241.8 1366,-241.8 1366,-173.8 862,-173.8"/>
</g>
<g id="clust22" class="cluster">
<title>cluster_HealthAuthenticationModule_exports</title>
<polygon fill="none" stroke="black" points="1152,-181.8 1152,-233.8 1358,-233.8 1358,-181.8 1152,-181.8"/>
</g>
<g id="clust24" class="cluster">
<title>cluster_HealthAuthenticationModule_providers</title>
<polygon fill="none" stroke="black" points="870,-181.8 870,-233.8 1144,-233.8 1144,-181.8 870,-181.8"/>
</g>
<g id="clust31" class="cluster">
<title>cluster_HealthUsersGrpcModule</title>
<polygon fill="none" stroke="black" stroke-dasharray="1,5" points="1374,-173.8 1374,-241.8 1824,-241.8 1824,-173.8 1374,-173.8"/>
</g>
<g id="clust34" class="cluster">
<title>cluster_HealthUsersGrpcModule_exports</title>
<polygon fill="none" stroke="black" points="1632,-181.8 1632,-233.8 1816,-233.8 1816,-181.8 1632,-181.8"/>
</g>
<g id="clust36" class="cluster">
<title>cluster_HealthUsersGrpcModule_providers</title>
<polygon fill="none" stroke="black" points="1382,-181.8 1382,-233.8 1624,-233.8 1624,-181.8 1382,-181.8"/>
</g>
<g id="clust37" class="cluster">
<title>cluster_HealthUsersRestModule</title>
<polygon fill="none" stroke="black" stroke-dasharray="1,5" points="1832,-173.8 1832,-241.8 2274,-241.8 2274,-173.8 1832,-173.8"/>
</g>
<g id="clust40" class="cluster">
<title>cluster_HealthUsersRestModule_exports</title>
<polygon fill="none" stroke="black" points="2086,-181.8 2086,-233.8 2266,-233.8 2266,-181.8 2086,-181.8"/>
</g>
<g id="clust42" class="cluster">
<title>cluster_HealthUsersRestModule_providers</title>
<polygon fill="none" stroke="black" points="1840,-181.8 1840,-233.8 2078,-233.8 2078,-181.8 1840,-181.8"/>
</g>
<!-- ConfigurationModule -->
<g id="node1" class="node">
<title>ConfigurationModule</title>
<polygon fill="#8dd3c7" stroke="black" points="688.1,-84.8 685.1,-88.8 664.1,-88.8 661.1,-84.8 549.9,-84.8 549.9,-48.8 688.1,-48.8 688.1,-84.8"/>
<text text-anchor="middle" x="619" y="-62.6" font-family="Times,serif" font-size="14.00">ConfigurationModule</text>
</g>
<!-- GuardsModule -->
<g id="node2" class="node">
<title>GuardsModule</title>
<polygon fill="#8dd3c7" stroke="black" points="143.99,-149.8 140.99,-153.8 119.99,-153.8 116.99,-149.8 44.01,-149.8 44.01,-113.8 143.99,-113.8 143.99,-149.8"/>
<text text-anchor="middle" x="94" y="-127.6" font-family="Times,serif" font-size="14.00">GuardsModule</text>
</g>
<!-- ConfigurationModule&#45;&gt;GuardsModule -->
<g id="edge18" class="edge">
<title>ConfigurationModule&#45;&gt;GuardsModule</title>
<path fill="none" stroke="black" d="M549.83,-54.8C407.27,-54.8 94,-54.8 94,-54.8 94,-54.8 94,-103.55 94,-103.55"/>
<polygon fill="black" stroke="black" points="90.5,-103.55 94,-113.55 97.5,-103.55 90.5,-103.55"/>
</g>
<!-- HealthAuthenticationModule -->
<g id="node3" class="node">
<title>HealthAuthenticationModule</title>
<polygon fill="#8dd3c7" stroke="black" points="342.07,-149.8 339.07,-153.8 318.07,-153.8 315.07,-149.8 161.93,-149.8 161.93,-113.8 342.07,-113.8 342.07,-149.8"/>
<text text-anchor="middle" x="252" y="-127.6" font-family="Times,serif" font-size="14.00">HealthAuthenticationModule</text>
</g>
<!-- ConfigurationModule&#45;&gt;HealthAuthenticationModule -->
<g id="edge20" class="edge">
<title>ConfigurationModule&#45;&gt;HealthAuthenticationModule</title>
<path fill="none" stroke="black" d="M549.54,-60.8C443.14,-60.8 252,-60.8 252,-60.8 252,-60.8 252,-103.52 252,-103.52"/>
<polygon fill="black" stroke="black" points="248.5,-103.52 252,-113.52 255.5,-103.52 248.5,-103.52"/>
</g>
<!-- HealthModule -->
<g id="node4" class="node">
<title>HealthModule</title>
<polygon fill="#8dd3c7" stroke="black" points="486.37,-225.8 483.37,-229.8 462.37,-229.8 459.37,-225.8 389.63,-225.8 389.63,-189.8 486.37,-189.8 486.37,-225.8"/>
<text text-anchor="middle" x="438" y="-203.6" font-family="Times,serif" font-size="14.00">HealthModule</text>
</g>
<!-- ConfigurationModule&#45;&gt;HealthModule -->
<g id="edge23" class="edge">
<title>ConfigurationModule&#45;&gt;HealthModule</title>
<path fill="none" stroke="black" d="M549.76,-72.8C534.26,-72.8 522.31,-72.8 522.31,-72.8 522.31,-72.8 522.31,-201.8 522.31,-201.8 522.31,-201.8 496.55,-201.8 496.55,-201.8"/>
<polygon fill="black" stroke="black" points="496.55,-198.3 486.55,-201.8 496.55,-205.3 496.55,-198.3"/>
</g>
<!-- HealthUsersGrpcModule -->
<g id="node5" class="node">
<title>HealthUsersGrpcModule</title>
<polygon fill="#8dd3c7" stroke="black" points="516.24,-149.8 513.24,-153.8 492.24,-153.8 489.24,-149.8 359.76,-149.8 359.76,-113.8 516.24,-113.8 516.24,-149.8"/>
<text text-anchor="middle" x="438" y="-127.6" font-family="Times,serif" font-size="14.00">HealthUsersGrpcModule</text>
</g>
<!-- ConfigurationModule&#45;&gt;HealthUsersGrpcModule -->
<g id="edge27" class="edge">
<title>ConfigurationModule&#45;&gt;HealthUsersGrpcModule</title>
<path fill="none" stroke="black" d="M549.8,-66.8C498.7,-66.8 438,-66.8 438,-66.8 438,-66.8 438,-103.69 438,-103.69"/>
<polygon fill="black" stroke="black" points="434.5,-103.69 438,-113.69 441.5,-103.69 434.5,-103.69"/>
</g>
<!-- HealthUsersRestModule -->
<g id="node6" class="node">
<title>HealthUsersRestModule</title>
<polygon fill="#8dd3c7" stroke="black" points="687.64,-149.8 684.64,-153.8 663.64,-153.8 660.64,-149.8 534.36,-149.8 534.36,-113.8 687.64,-113.8 687.64,-149.8"/>
<text text-anchor="middle" x="611" y="-127.6" font-family="Times,serif" font-size="14.00">HealthUsersRestModule</text>
</g>
<!-- ConfigurationModule&#45;&gt;HealthUsersRestModule -->
<g id="edge30" class="edge">
<title>ConfigurationModule&#45;&gt;HealthUsersRestModule</title>
<path fill="none" stroke="black" d="M618.89,-84.91C618.89,-84.91 618.89,-103.79 618.89,-103.79"/>
<polygon fill="black" stroke="black" points="615.39,-103.79 618.89,-113.79 622.39,-103.79 615.39,-103.79"/>
</g>
<!-- AppModule -->
<g id="node7" class="node">
<title>AppModule</title>
<polygon fill="#8dd3c7" stroke="black" points="445.66,-290.8 442.66,-294.8 421.66,-294.8 418.66,-290.8 362.34,-290.8 362.34,-254.8 445.66,-254.8 445.66,-290.8"/>
<text text-anchor="middle" x="404" y="-268.6" font-family="Times,serif" font-size="14.00">AppModule</text>
</g>
<!-- ConfigurationModule&#45;&gt;AppModule -->
<g id="edge1" class="edge">
<title>ConfigurationModule&#45;&gt;AppModule</title>
<path fill="none" stroke="black" d="M549.75,-78.8C537.33,-78.8 528.24,-78.8 528.24,-78.8 528.24,-78.8 528.24,-266.8 528.24,-266.8 528.24,-266.8 455.72,-266.8 455.72,-266.8"/>
<polygon fill="black" stroke="black" points="455.72,-263.3 445.72,-266.8 455.72,-270.3 455.72,-263.3"/>
</g>
<!-- InjectionName.ACCESS_CONTROL_ALLOW_ORIGIN  -->
<g id="node8" class="node">
<title>InjectionName.ACCESS_CONTROL_ALLOW_ORIGIN </title>
<polygon fill="#fb8072" stroke="black" points="1876.74,-149.8 1531.26,-149.8 1531.26,-113.8 1876.74,-113.8 1876.74,-149.8"/>
<text text-anchor="middle" x="1704" y="-127.6" font-family="Times,serif" font-size="14.00">InjectionName.ACCESS_CONTROL_ALLOW_ORIGIN </text>
</g>
<!-- ConfigurationModule&#45;&gt;InjectionName.ACCESS_CONTROL_ALLOW_ORIGIN  -->
<g id="edge7" class="edge">
<title>ConfigurationModule&#45;&gt;InjectionName.ACCESS_CONTROL_ALLOW_ORIGIN </title>
<path fill="none" stroke="black" stroke-dasharray="5,2" d="M688.11,-72.8C927.1,-72.8 1704,-72.8 1704,-72.8 1704,-72.8 1704,-103.78 1704,-103.78"/>
<polygon fill="black" stroke="black" points="1700.5,-103.78 1704,-113.78 1707.5,-103.78 1700.5,-103.78"/>
</g>
<!-- InjectionName.API_KEY  -->
<g id="node9" class="node">
<title>InjectionName.API_KEY </title>
<polygon fill="#fb8072" stroke="black" points="1513.02,-149.8 1348.98,-149.8 1348.98,-113.8 1513.02,-113.8 1513.02,-149.8"/>
<text text-anchor="middle" x="1431" y="-127.6" font-family="Times,serif" font-size="14.00">InjectionName.API_KEY </text>
</g>
<!-- ConfigurationModule&#45;&gt;InjectionName.API_KEY  -->
<g id="edge8" class="edge">
<title>ConfigurationModule&#45;&gt;InjectionName.API_KEY </title>
<path fill="none" stroke="black" stroke-dasharray="5,2" d="M688.23,-75.8C884.59,-75.8 1431,-75.8 1431,-75.8 1431,-75.8 1431,-103.77 1431,-103.77"/>
<polygon fill="black" stroke="black" points="1427.5,-103.77 1431,-113.77 1434.5,-103.77 1427.5,-103.77"/>
</g>
<!-- InjectionName.API_KEY_HEADER_NAME  -->
<g id="node10" class="node">
<title>InjectionName.API_KEY_HEADER_NAME </title>
<polygon fill="#fb8072" stroke="black" points="1330.01,-149.8 1053.99,-149.8 1053.99,-113.8 1330.01,-113.8 1330.01,-149.8"/>
<text text-anchor="middle" x="1192" y="-127.6" font-family="Times,serif" font-size="14.00">InjectionName.API_KEY_HEADER_NAME </text>
</g>
<!-- ConfigurationModule&#45;&gt;InjectionName.API_KEY_HEADER_NAME  -->
<g id="edge9" class="edge">
<title>ConfigurationModule&#45;&gt;InjectionName.API_KEY_HEADER_NAME </title>
<path fill="none" stroke="black" stroke-dasharray="5,2" d="M688.12,-78.8C840.52,-78.8 1192,-78.8 1192,-78.8 1192,-78.8 1192,-103.56 1192,-103.56"/>
<polygon fill="black" stroke="black" points="1188.5,-103.56 1192,-113.56 1195.5,-103.56 1188.5,-103.56"/>
</g>
<!-- InjectionName.AUTHENTICATION_SERVICE  -->
<g id="node11" class="node">
<title>InjectionName.AUTHENTICATION_SERVICE </title>
<polygon fill="#fb8072" stroke="black" points="1035.67,-149.8 740.33,-149.8 740.33,-113.8 1035.67,-113.8 1035.67,-149.8"/>
<text text-anchor="middle" x="888" y="-127.6" font-family="Times,serif" font-size="14.00">InjectionName.AUTHENTICATION_SERVICE </text>
</g>
<!-- ConfigurationModule&#45;&gt;InjectionName.AUTHENTICATION_SERVICE  -->
<g id="edge10" class="edge">
<title>ConfigurationModule&#45;&gt;InjectionName.AUTHENTICATION_SERVICE </title>
<path fill="none" stroke="black" stroke-dasharray="5,2" d="M688.27,-81.8C767.98,-81.8 888,-81.8 888,-81.8 888,-81.8 888,-103.75 888,-103.75"/>
<polygon fill="black" stroke="black" points="884.5,-103.75 888,-113.75 891.5,-103.75 884.5,-103.75"/>
</g>
<!-- InjectionName.AUTHENTICATION_SERVICE_API_KEY  -->
<g id="node12" class="node">
<title>InjectionName.AUTHENTICATION_SERVICE_API_KEY </title>
<polygon fill="#fb8072" stroke="black" points="3940.5,-149.8 3579.5,-149.8 3579.5,-113.8 3940.5,-113.8 3940.5,-149.8"/>
<text text-anchor="middle" x="3760" y="-127.6" font-family="Times,serif" font-size="14.00">InjectionName.AUTHENTICATION_SERVICE_API_KEY </text>
</g>
<!-- ConfigurationModule&#45;&gt;InjectionName.AUTHENTICATION_SERVICE_API_KEY  -->
<g id="edge11" class="edge">
<title>ConfigurationModule&#45;&gt;InjectionName.AUTHENTICATION_SERVICE_API_KEY </title>
<path fill="none" stroke="black" stroke-dasharray="5,2" d="M688.26,-51.8C1149.66,-51.8 3760,-51.8 3760,-51.8 3760,-51.8 3760,-103.65 3760,-103.65"/>
<polygon fill="black" stroke="black" points="3756.5,-103.65 3760,-113.65 3763.5,-103.65 3756.5,-103.65"/>
</g>
<!-- InjectionName.HTTP_CHECKS  -->
<g id="node13" class="node">
<title>InjectionName.HTTP_CHECKS </title>
<polygon fill="#fb8072" stroke="black" points="3561.92,-149.8 3358.08,-149.8 3358.08,-113.8 3561.92,-113.8 3561.92,-149.8"/>
<text text-anchor="middle" x="3460" y="-127.6" font-family="Times,serif" font-size="14.00">InjectionName.HTTP_CHECKS </text>
</g>
<!-- ConfigurationModule&#45;&gt;InjectionName.HTTP_CHECKS  -->
<g id="edge12" class="edge">
<title>ConfigurationModule&#45;&gt;InjectionName.HTTP_CHECKS </title>
<path fill="none" stroke="black" stroke-dasharray="5,2" d="M688.17,-54.8C1122.94,-54.8 3460,-54.8 3460,-54.8 3460,-54.8 3460,-103.55 3460,-103.55"/>
<polygon fill="black" stroke="black" points="3456.5,-103.55 3460,-113.55 3463.5,-103.55 3456.5,-103.55"/>
</g>
<!-- InjectionName.PORT  -->
<g id="node14" class="node">
<title>InjectionName.PORT </title>
<polygon fill="#fb8072" stroke="black" points="3339.97,-149.8 3198.03,-149.8 3198.03,-113.8 3339.97,-113.8 3339.97,-149.8"/>
<text text-anchor="middle" x="3269" y="-127.6" font-family="Times,serif" font-size="14.00">InjectionName.PORT </text>
</g>
<!-- ConfigurationModule&#45;&gt;InjectionName.PORT  -->
<g id="edge13" class="edge">
<title>ConfigurationModule&#45;&gt;InjectionName.PORT </title>
<path fill="none" stroke="black" stroke-dasharray="5,2" d="M688.18,-57.8C1105.46,-57.8 3269,-57.8 3269,-57.8 3269,-57.8 3269,-103.51 3269,-103.51"/>
<polygon fill="black" stroke="black" points="3265.5,-103.51 3269,-113.51 3272.5,-103.51 3265.5,-103.51"/>
</g>
<!-- InjectionName.USERS_GRPC_SERVICE_API_KEY  -->
<g id="node15" class="node">
<title>InjectionName.USERS_GRPC_SERVICE_API_KEY </title>
<polygon fill="#fb8072" stroke="black" points="3180,-149.8 2856,-149.8 2856,-113.8 3180,-113.8 3180,-149.8"/>
<text text-anchor="middle" x="3018" y="-127.6" font-family="Times,serif" font-size="14.00">InjectionName.USERS_GRPC_SERVICE_API_KEY </text>
</g>
<!-- ConfigurationModule&#45;&gt;InjectionName.USERS_GRPC_SERVICE_API_KEY  -->
<g id="edge14" class="edge">
<title>ConfigurationModule&#45;&gt;InjectionName.USERS_GRPC_SERVICE_API_KEY </title>
<path fill="none" stroke="black" stroke-dasharray="5,2" d="M688.21,-60.8C1081.55,-60.8 3018,-60.8 3018,-60.8 3018,-60.8 3018,-103.52 3018,-103.52"/>
<polygon fill="black" stroke="black" points="3014.5,-103.52 3018,-113.52 3021.5,-103.52 3014.5,-103.52"/>
</g>
<!-- InjectionName.USERS_GRPC_SERVICE_URL  -->
<g id="node16" class="node">
<title>InjectionName.USERS_GRPC_SERVICE_URL </title>
<polygon fill="#fb8072" stroke="black" points="2837.67,-149.8 2544.33,-149.8 2544.33,-113.8 2837.67,-113.8 2837.67,-149.8"/>
<text text-anchor="middle" x="2691" y="-127.6" font-family="Times,serif" font-size="14.00">InjectionName.USERS_GRPC_SERVICE_URL </text>
</g>
<!-- ConfigurationModule&#45;&gt;InjectionName.USERS_GRPC_SERVICE_URL  -->
<g id="edge15" class="edge">
<title>ConfigurationModule&#45;&gt;InjectionName.USERS_GRPC_SERVICE_URL </title>
<path fill="none" stroke="black" stroke-dasharray="5,2" d="M688.24,-63.8C1048.36,-63.8 2691,-63.8 2691,-63.8 2691,-63.8 2691,-103.58 2691,-103.58"/>
<polygon fill="black" stroke="black" points="2687.5,-103.58 2691,-113.58 2694.5,-103.58 2687.5,-103.58"/>
</g>
<!-- InjectionName.USERS_SERVICE_REST_API_KEY  -->
<g id="node17" class="node">
<title>InjectionName.USERS_SERVICE_REST_API_KEY </title>
<polygon fill="#fb8072" stroke="black" points="2525.66,-149.8 2204.34,-149.8 2204.34,-113.8 2525.66,-113.8 2525.66,-149.8"/>
<text text-anchor="middle" x="2365" y="-127.6" font-family="Times,serif" font-size="14.00">InjectionName.USERS_SERVICE_REST_API_KEY </text>
</g>
<!-- ConfigurationModule&#45;&gt;InjectionName.USERS_SERVICE_REST_API_KEY  -->
<g id="edge16" class="edge">
<title>ConfigurationModule&#45;&gt;InjectionName.USERS_SERVICE_REST_API_KEY </title>
<path fill="none" stroke="black" stroke-dasharray="5,2" d="M688.25,-66.8C1012.51,-66.8 2365,-66.8 2365,-66.8 2365,-66.8 2365,-103.69 2365,-103.69"/>
<polygon fill="black" stroke="black" points="2361.5,-103.69 2365,-113.69 2368.5,-103.69 2361.5,-103.69"/>
</g>
<!-- InjectionName.USERS_SERVICE_REST_URL  -->
<g id="node18" class="node">
<title>InjectionName.USERS_SERVICE_REST_URL </title>
<polygon fill="#fb8072" stroke="black" points="2186.82,-149.8 1895.18,-149.8 1895.18,-113.8 2186.82,-113.8 2186.82,-149.8"/>
<text text-anchor="middle" x="2041" y="-127.6" font-family="Times,serif" font-size="14.00">InjectionName.USERS_SERVICE_REST_URL </text>
</g>
<!-- ConfigurationModule&#45;&gt;InjectionName.USERS_SERVICE_REST_URL  -->
<g id="edge17" class="edge">
<title>ConfigurationModule&#45;&gt;InjectionName.USERS_SERVICE_REST_URL </title>
<path fill="none" stroke="black" stroke-dasharray="5,2" d="M688.07,-69.8C972.84,-69.8 2041,-69.8 2041,-69.8 2041,-69.8 2041,-103.53 2041,-103.53"/>
<polygon fill="black" stroke="black" points="2037.5,-103.53 2041,-113.53 2044.5,-103.53 2037.5,-103.53"/>
</g>
<!-- GuardsModule&#45;&gt;AppModule -->
<g id="edge2" class="edge">
<title>GuardsModule&#45;&gt;AppModule</title>
<path fill="none" stroke="black" d="M110.66,-149.83C110.66,-189.08 110.66,-278.8 110.66,-278.8 110.66,-278.8 352.28,-278.8 352.28,-278.8"/>
<polygon fill="black" stroke="black" points="352.28,-282.3 362.28,-278.8 352.28,-275.3 352.28,-282.3"/>
</g>
<!-- ApiKeyGuard  -->
<g id="node19" class="node">
<title>ApiKeyGuard </title>
<polygon fill="#fb8072" stroke="black" points="838.31,-225.8 739.69,-225.8 739.69,-189.8 838.31,-189.8 838.31,-225.8"/>
<text text-anchor="middle" x="789" y="-203.6" font-family="Times,serif" font-size="14.00">ApiKeyGuard </text>
</g>
<!-- GuardsModule&#45;&gt;ApiKeyGuard  -->
<g id="edge19" class="edge">
<title>GuardsModule&#45;&gt;ApiKeyGuard </title>
<path fill="none" stroke="black" stroke-dasharray="5,2" d="M77.34,-150.04C77.34,-165.37 77.34,-184.8 77.34,-184.8 77.34,-184.8 789.41,-184.8 789.41,-184.8 789.41,-184.8 789.41,-185.29 789.41,-185.29"/>
<polygon fill="black" stroke="black" points="785.91,-179.68 789.41,-189.68 792.91,-179.68 785.91,-179.68"/>
</g>
<!-- HealthAuthenticationModule&#45;&gt;HealthModule -->
<g id="edge24" class="edge">
<title>HealthAuthenticationModule&#45;&gt;HealthModule</title>
<path fill="none" stroke="black" d="M306.02,-149.81C306.02,-172.29 306.02,-207.8 306.02,-207.8 306.02,-207.8 379.61,-207.8 379.61,-207.8"/>
<polygon fill="black" stroke="black" points="379.61,-211.3 389.61,-207.8 379.61,-204.3 379.61,-211.3"/>
</g>
<!-- HealthAuthenticationModule&#45;&gt;AppModule -->
<g id="edge3" class="edge">
<title>HealthAuthenticationModule&#45;&gt;AppModule</title>
<path fill="none" stroke="black" d="M270.01,-150.01C270.01,-186.86 270.01,-266.8 270.01,-266.8 270.01,-266.8 351.97,-266.8 351.97,-266.8"/>
<polygon fill="black" stroke="black" points="351.97,-270.3 361.97,-266.8 351.97,-263.3 351.97,-270.3"/>
</g>
<!-- AuthenticationHealthIndicator  -->
<g id="node20" class="node">
<title>AuthenticationHealthIndicator </title>
<polygon fill="#fb8072" stroke="black" points="1350.05,-225.8 1159.95,-225.8 1159.95,-189.8 1350.05,-189.8 1350.05,-225.8"/>
<text text-anchor="middle" x="1255" y="-203.6" font-family="Times,serif" font-size="14.00">AuthenticationHealthIndicator </text>
</g>
<!-- HealthAuthenticationModule&#45;&gt;AuthenticationHealthIndicator  -->
<g id="edge21" class="edge">
<title>HealthAuthenticationModule&#45;&gt;AuthenticationHealthIndicator </title>
<path fill="none" stroke="black" stroke-dasharray="5,2" d="M197.98,-150.29C197.98,-161.94 197.98,-174.8 197.98,-174.8 197.98,-174.8 1244.99,-174.8 1244.99,-174.8 1244.99,-174.8 1244.99,-179.76 1244.99,-179.76"/>
<polygon fill="black" stroke="black" points="1241.49,-179.76 1244.99,-189.76 1248.49,-179.76 1241.49,-179.76"/>
</g>
<!-- HealthModule&#45;&gt;AppModule -->
<g id="edge4" class="edge">
<title>HealthModule&#45;&gt;AppModule</title>
<path fill="none" stroke="black" d="M417.7,-225.91C417.7,-225.91 417.7,-244.79 417.7,-244.79"/>
<polygon fill="black" stroke="black" points="414.2,-244.79 417.7,-254.79 421.2,-244.79 414.2,-244.79"/>
</g>
<!-- HealthUsersGrpcModule&#45;&gt;HealthModule -->
<g id="edge25" class="edge">
<title>HealthUsersGrpcModule&#45;&gt;HealthModule</title>
<path fill="none" stroke="black" d="M438,-149.81C438,-149.81 438,-179.65 438,-179.65"/>
<polygon fill="black" stroke="black" points="434.5,-179.65 438,-189.65 441.5,-179.65 434.5,-179.65"/>
</g>
<!-- HealthUsersGrpcModule&#45;&gt;AppModule -->
<g id="edge5" class="edge">
<title>HealthUsersGrpcModule&#45;&gt;AppModule</title>
<path fill="none" stroke="black" d="M375.87,-149.94C375.87,-149.94 375.87,-244.73 375.87,-244.73"/>
<polygon fill="black" stroke="black" points="372.37,-244.72 375.87,-254.73 379.37,-244.73 372.37,-244.72"/>
</g>
<!-- UsersGrpcHealthIndicator  -->
<g id="node22" class="node">
<title>UsersGrpcHealthIndicator </title>
<polygon fill="#fb8072" stroke="black" points="1807.72,-225.8 1640.28,-225.8 1640.28,-189.8 1807.72,-189.8 1807.72,-225.8"/>
<text text-anchor="middle" x="1724" y="-203.6" font-family="Times,serif" font-size="14.00">UsersGrpcHealthIndicator </text>
</g>
<!-- HealthUsersGrpcModule&#45;&gt;UsersGrpcHealthIndicator  -->
<g id="edge28" class="edge">
<title>HealthUsersGrpcModule&#45;&gt;UsersGrpcHealthIndicator </title>
<path fill="none" stroke="black" stroke-dasharray="5,2" d="M496.41,-149.84C496.41,-157.55 496.41,-164.8 496.41,-164.8 496.41,-164.8 1724,-164.8 1724,-164.8 1724,-164.8 1724,-179.31 1724,-179.31"/>
<polygon fill="black" stroke="black" points="1720.5,-179.31 1724,-189.31 1727.5,-179.31 1720.5,-179.31"/>
</g>
<!-- HealthUsersRestModule&#45;&gt;HealthModule -->
<g id="edge26" class="edge">
<title>HealthUsersRestModule&#45;&gt;HealthModule</title>
<path fill="none" stroke="black" d="M626.36,-150C626.36,-174.16 626.36,-213.8 626.36,-213.8 626.36,-213.8 496.51,-213.8 496.51,-213.8"/>
<polygon fill="black" stroke="black" points="496.51,-210.3 486.51,-213.8 496.51,-217.3 496.51,-210.3"/>
</g>
<!-- HealthUsersRestModule&#45;&gt;AppModule -->
<g id="edge6" class="edge">
<title>HealthUsersRestModule&#45;&gt;AppModule</title>
<path fill="none" stroke="black" d="M657.09,-149.83C657.09,-189.08 657.09,-278.8 657.09,-278.8 657.09,-278.8 455.79,-278.8 455.79,-278.8"/>
<polygon fill="black" stroke="black" points="455.79,-275.3 445.79,-278.8 455.79,-282.3 455.79,-275.3"/>
</g>
<!-- UsersRestHealthIndicator  -->
<g id="node24" class="node">
<title>UsersRestHealthIndicator </title>
<polygon fill="#fb8072" stroke="black" points="2258.12,-225.8 2093.88,-225.8 2093.88,-189.8 2258.12,-189.8 2258.12,-225.8"/>
<text text-anchor="middle" x="2176" y="-203.6" font-family="Times,serif" font-size="14.00">UsersRestHealthIndicator </text>
</g>
<!-- HealthUsersRestModule&#45;&gt;UsersRestHealthIndicator  -->
<g id="edge31" class="edge">
<title>HealthUsersRestModule&#45;&gt;UsersRestHealthIndicator </title>
<path fill="none" stroke="black" stroke-dasharray="5,2" d="M564.91,-149.92C564.91,-152.77 564.91,-154.8 564.91,-154.8 564.91,-154.8 2140.3,-154.8 2140.3,-154.8 2140.3,-154.8 2140.3,-179.56 2140.3,-179.56"/>
<polygon fill="black" stroke="black" points="2136.8,-179.56 2140.3,-189.56 2143.8,-179.56 2136.8,-179.56"/>
</g>
<!-- AuthenticationHealthIndicator -->
<g id="node21" class="node">
<title>AuthenticationHealthIndicator</title>
<ellipse fill="#fdb462" stroke="black" cx="1007" cy="-207.8" rx="129.05" ry="18"/>
<text text-anchor="middle" x="1007" y="-203.6" font-family="Times,serif" font-size="14.00">AuthenticationHealthIndicator</text>
</g>
<!-- AuthenticationHealthIndicator&#45;&gt;HealthAuthenticationModule -->
<g id="edge22" class="edge">
<title>AuthenticationHealthIndicator&#45;&gt;HealthAuthenticationModule</title>
<path fill="none" stroke="black" d="M956.78,-191.19C956.78,-185.16 956.78,-179.8 956.78,-179.8 956.78,-179.8 233.99,-179.8 233.99,-179.8 233.99,-179.8 233.99,-159.95 233.99,-159.95"/>
<polygon fill="black" stroke="black" points="237.49,-159.95 233.99,-149.95 230.49,-159.95 237.49,-159.95"/>
</g>
<!-- UsersGrpcHealthIndicator -->
<g id="node23" class="node">
<title>UsersGrpcHealthIndicator</title>
<ellipse fill="#fdb462" stroke="black" cx="1503" cy="-207.8" rx="112.86" ry="18"/>
<text text-anchor="middle" x="1503" y="-203.6" font-family="Times,serif" font-size="14.00">UsersGrpcHealthIndicator</text>
</g>
<!-- UsersGrpcHealthIndicator&#45;&gt;HealthUsersGrpcModule -->
<g id="edge29" class="edge">
<title>UsersGrpcHealthIndicator&#45;&gt;HealthUsersGrpcModule</title>
<path fill="none" stroke="black" d="M1451.66,-191.46C1451.66,-181.16 1451.66,-169.8 1451.66,-169.8 1451.66,-169.8 506.39,-169.8 506.39,-169.8 506.39,-169.8 506.39,-159.91 506.39,-159.91"/>
<polygon fill="black" stroke="black" points="509.89,-159.91 506.39,-149.91 502.89,-159.91 509.89,-159.91"/>
</g>
<!-- UsersRestHealthIndicator -->
<g id="node25" class="node">
<title>UsersRestHealthIndicator</title>
<ellipse fill="#fdb462" stroke="black" cx="1959" cy="-207.8" rx="110.59" ry="18"/>
<text text-anchor="middle" x="1959" y="-203.6" font-family="Times,serif" font-size="14.00">UsersRestHealthIndicator</text>
</g>
<!-- UsersRestHealthIndicator&#45;&gt;HealthUsersRestModule -->
<g id="edge32" class="edge">
<title>UsersRestHealthIndicator&#45;&gt;HealthUsersRestModule</title>
<path fill="none" stroke="black" d="M1862.54,-198.55C1862.54,-184.6 1862.54,-159.8 1862.54,-159.8 1862.54,-159.8 595.64,-159.8 595.64,-159.8 595.64,-159.8 595.64,-158.82 595.64,-158.82"/>
<polygon fill="black" stroke="black" points="599.14,-160.01 595.64,-150.01 592.14,-160.01 599.14,-160.01"/>
</g>
</g>
</svg>
