<?xml version="1.0" encoding="UTF-8" standalone="no"?>
<!DOCTYPE svg PUBLIC "-//W3C//DTD SVG 1.1//EN"
 "http://www.w3.org/Graphics/SVG/1.1/DTD/svg11.dtd">
<!-- Generated by graphviz version 5.0.0 (20220707.1540)
 -->
<!-- Title: dependencies Pages: 1 -->
<svg width="476pt" height="247pt"
 viewBox="0.00 0.00 476.00 246.80" xmlns="http://www.w3.org/2000/svg" xmlns:xlink="http://www.w3.org/1999/xlink">
<g id="graph0" class="graph" transform="scale(1 1) rotate(0) translate(4 242.8)">
<title>dependencies</title>
<polygon fill="white" stroke="transparent" points="-4,4 -4,-242.8 472,-242.8 472,4 -4,4"/>
<text text-anchor="middle" x="234" y="-8.2" font-family="sans-serif" font-size="14.00">dependencies</text>
<g id="clust1" class="cluster">
<title>cluster_HealthAuthenticationModule</title>
<polygon fill="none" stroke="black" stroke-dasharray="1,5" points="8,-32.8 8,-230.8 460,-230.8 460,-32.8 8,-32.8"/>
</g>
<g id="clust6" class="cluster">
<title>cluster_HealthAuthenticationModule_providers</title>
<polygon fill="none" stroke="black" points="178,-40.8 178,-92.8 452,-92.8 452,-40.8 178,-40.8"/>
</g>
<g id="clust4" class="cluster">
<title>cluster_HealthAuthenticationModule_exports</title>
<polygon fill="none" stroke="black" points="114,-170.8 114,-222.8 320,-222.8 320,-170.8 114,-170.8"/>
</g>
<g id="clust3" class="cluster">
<title>cluster_HealthAuthenticationModule_imports</title>
<polygon fill="none" stroke="black" points="16,-40.8 16,-92.8 170,-92.8 170,-40.8 16,-40.8"/>
</g>
<!-- ConfigurationModule -->
<g id="node1" class="node">
<title>ConfigurationModule</title>
<polygon fill="#8dd3c7" stroke="black" points="162.1,-84.8 159.1,-88.8 138.1,-88.8 135.1,-84.8 23.9,-84.8 23.9,-48.8 162.1,-48.8 162.1,-84.8"/>
<text text-anchor="middle" x="93" y="-62.6" font-family="Times,serif" font-size="14.00">ConfigurationModule</text>
</g>
<!-- HealthAuthenticationModule -->
<g id="node2" class="node">
<title>HealthAuthenticationModule</title>
<polygon fill="#8dd3c7" stroke="black" points="307.07,-149.8 304.07,-153.8 283.07,-153.8 280.07,-149.8 126.93,-149.8 126.93,-113.8 307.07,-113.8 307.07,-149.8"/>
<text text-anchor="middle" x="217" y="-127.6" font-family="Times,serif" font-size="14.00">HealthAuthenticationModule</text>
</g>
<!-- ConfigurationModule&#45;&gt;HealthAuthenticationModule -->
<g id="edge1" class="edge">
<title>ConfigurationModule&#45;&gt;HealthAuthenticationModule</title>
<path fill="none" stroke="black" d="M144.51,-84.91C144.51,-84.91 144.51,-103.79 144.51,-103.79"/>
<polygon fill="black" stroke="black" points="141.01,-103.79 144.51,-113.79 148.01,-103.79 141.01,-103.79"/>
</g>
<!-- AuthenticationHealthIndicator  -->
<g id="node3" class="node">
<title>AuthenticationHealthIndicator </title>
<polygon fill="#fb8072" stroke="black" points="312.05,-214.8 121.95,-214.8 121.95,-178.8 312.05,-178.8 312.05,-214.8"/>
<text text-anchor="middle" x="217" y="-192.6" font-family="Times,serif" font-size="14.00">AuthenticationHealthIndicator </text>
</g>
<!-- HealthAuthenticationModule&#45;&gt;AuthenticationHealthIndicator  -->
<g id="edge2" class="edge">
<title>HealthAuthenticationModule&#45;&gt;AuthenticationHealthIndicator </title>
<path fill="none" stroke="black" stroke-dasharray="5,2" d="M217,-149.91C217,-149.91 217,-168.79 217,-168.79"/>
<polygon fill="black" stroke="black" points="213.5,-168.79 217,-178.79 220.5,-168.79 213.5,-168.79"/>
</g>
<!-- AuthenticationHealthIndicator -->
<g id="node4" class="node">
<title>AuthenticationHealthIndicator</title>
<ellipse fill="#fdb462" stroke="black" cx="315" cy="-66.8" rx="129.05" ry="18"/>
<text text-anchor="middle" x="315" y="-62.6" font-family="Times,serif" font-size="14.00">AuthenticationHealthIndicator</text>
</g>
<!-- AuthenticationHealthIndicator&#45;&gt;HealthAuthenticationModule -->
<g id="edge3" class="edge">
<title>AuthenticationHealthIndicator&#45;&gt;HealthAuthenticationModule</title>
<path fill="none" stroke="black" d="M246.51,-82.2C246.51,-82.2 246.51,-103.74 246.51,-103.74"/>
<polygon fill="black" stroke="black" points="243.01,-103.74 246.51,-113.74 250.01,-103.74 243.01,-103.74"/>
</g>
</g>
</svg>
