<?xml version="1.0" encoding="UTF-8" standalone="no"?>
<!DOCTYPE svg PUBLIC "-//W3C//DTD SVG 1.1//EN"
 "http://www.w3.org/Graphics/SVG/1.1/DTD/svg11.dtd">
<!-- Generated by graphviz version 5.0.0 (20220707.1540)
 -->
<!-- Title: dependencies Pages: 1 -->
<svg width="598pt" height="239pt"
 viewBox="0.00 0.00 598.00 238.80" xmlns="http://www.w3.org/2000/svg" xmlns:xlink="http://www.w3.org/1999/xlink">
<g id="graph0" class="graph" transform="scale(1 1) rotate(0) translate(4 234.8)">
<title>dependencies</title>
<polygon fill="white" stroke="transparent" points="-4,4 -4,-234.8 594,-234.8 594,4 -4,4"/>
<text text-anchor="middle" x="295" y="-8.2" font-family="sans-serif" font-size="14.00">dependencies</text>
<g id="clust1" class="cluster">
<title>cluster_AppModule</title>
<polygon fill="none" stroke="black" stroke-dasharray="1,5" points="8,-32.8 8,-222.8 178,-222.8 178,-32.8 8,-32.8"/>
</g>
<g id="clust3" class="cluster">
<title>cluster_AppModule_imports</title>
<polygon fill="none" stroke="black" points="16,-40.8 16,-157.8 170,-157.8 170,-40.8 16,-40.8"/>
</g>
<g id="clust7" class="cluster">
<title>cluster_ConfigurationModule</title>
<polygon fill="none" stroke="black" stroke-dasharray="1,5" points="186,-97.8 186,-165.8 582,-165.8 582,-97.8 186,-97.8"/>
</g>
<g id="clust10" class="cluster">
<title>cluster_ConfigurationModule_exports</title>
<polygon fill="none" stroke="black" points="194,-105.8 194,-157.8 574,-157.8 574,-105.8 194,-105.8"/>
</g>
<!-- ConfigurationModule -->
<g id="node1" class="node">
<title>ConfigurationModule</title>
<polygon fill="#8dd3c7" stroke="black" points="162.1,-84.8 159.1,-88.8 138.1,-88.8 135.1,-84.8 23.9,-84.8 23.9,-48.8 162.1,-48.8 162.1,-84.8"/>
<text text-anchor="middle" x="93" y="-62.6" font-family="Times,serif" font-size="14.00">ConfigurationModule</text>
</g>
<!-- HealthModule -->
<g id="node2" class="node">
<title>HealthModule</title>
<polygon fill="#8dd3c7" stroke="black" points="130.37,-149.8 127.37,-153.8 106.37,-153.8 103.37,-149.8 33.63,-149.8 33.63,-113.8 130.37,-113.8 130.37,-149.8"/>
<text text-anchor="middle" x="82" y="-127.6" font-family="Times,serif" font-size="14.00">HealthModule</text>
</g>
<!-- ConfigurationModule&#45;&gt;HealthModule -->
<g id="edge5" class="edge">
<title>ConfigurationModule&#45;&gt;HealthModule</title>
<path fill="none" stroke="black" d="M82,-84.91C82,-84.91 82,-103.79 82,-103.79"/>
<polygon fill="black" stroke="black" points="78.5,-103.79 82,-113.79 85.5,-103.79 78.5,-103.79"/>
</g>
<!-- AppModule -->
<g id="node3" class="node">
<title>AppModule</title>
<polygon fill="#8dd3c7" stroke="black" points="146.66,-214.8 143.66,-218.8 122.66,-218.8 119.66,-214.8 63.34,-214.8 63.34,-178.8 146.66,-178.8 146.66,-214.8"/>
<text text-anchor="middle" x="105" y="-192.6" font-family="Times,serif" font-size="14.00">AppModule</text>
</g>
<!-- ConfigurationModule&#45;&gt;AppModule -->
<g id="edge1" class="edge">
<title>ConfigurationModule&#45;&gt;AppModule</title>
<path fill="none" stroke="black" d="M138.63,-84.88C138.63,-84.88 138.63,-168.46 138.63,-168.46"/>
<polygon fill="black" stroke="black" points="135.13,-168.46 138.63,-178.46 142.13,-168.46 135.13,-168.46"/>
</g>
<!-- InjectionName.HTTP_CHECKS  -->
<g id="node4" class="node">
<title>InjectionName.HTTP_CHECKS </title>
<polygon fill="#fb8072" stroke="black" points="565.92,-149.8 362.08,-149.8 362.08,-113.8 565.92,-113.8 565.92,-149.8"/>
<text text-anchor="middle" x="464" y="-127.6" font-family="Times,serif" font-size="14.00">InjectionName.HTTP_CHECKS </text>
</g>
<!-- ConfigurationModule&#45;&gt;InjectionName.HTTP_CHECKS  -->
<g id="edge3" class="edge">
<title>ConfigurationModule&#45;&gt;InjectionName.HTTP_CHECKS </title>
<path fill="none" stroke="black" stroke-dasharray="5,2" d="M162.35,-66.8C269.73,-66.8 464,-66.8 464,-66.8 464,-66.8 464,-103.69 464,-103.69"/>
<polygon fill="black" stroke="black" points="460.5,-103.69 464,-113.69 467.5,-103.69 460.5,-103.69"/>
</g>
<!-- InjectionName.PORT  -->
<g id="node5" class="node">
<title>InjectionName.PORT </title>
<polygon fill="#fb8072" stroke="black" points="343.97,-149.8 202.03,-149.8 202.03,-113.8 343.97,-113.8 343.97,-149.8"/>
<text text-anchor="middle" x="273" y="-127.6" font-family="Times,serif" font-size="14.00">InjectionName.PORT </text>
</g>
<!-- ConfigurationModule&#45;&gt;InjectionName.PORT  -->
<g id="edge4" class="edge">
<title>ConfigurationModule&#45;&gt;InjectionName.PORT </title>
<path fill="none" stroke="black" stroke-dasharray="5,2" d="M154.44,-84.91C154.44,-104.14 154.44,-131.8 154.44,-131.8 154.44,-131.8 191.98,-131.8 191.98,-131.8"/>
<polygon fill="black" stroke="black" points="191.98,-135.3 201.98,-131.8 191.98,-128.3 191.98,-135.3"/>
</g>
<!-- HealthModule&#45;&gt;AppModule -->
<g id="edge2" class="edge">
<title>HealthModule&#45;&gt;AppModule</title>
<path fill="none" stroke="black" d="M96.8,-149.91C96.8,-149.91 96.8,-168.79 96.8,-168.79"/>
<polygon fill="black" stroke="black" points="93.3,-168.79 96.8,-178.79 100.3,-168.79 93.3,-168.79"/>
</g>
</g>
</svg>
