<?xml version="1.0" encoding="UTF-8" standalone="no"?>
<!DOCTYPE svg PUBLIC "-//W3C//DTD SVG 1.1//EN"
 "http://www.w3.org/Graphics/SVG/1.1/DTD/svg11.dtd">
<!-- Generated by graphviz version 5.0.0 (20220707.1540)
 -->
<!-- Title: dependencies Pages: 1 -->
<svg width="1732pt" height="174pt"
 viewBox="0.00 0.00 1732.00 173.80" xmlns="http://www.w3.org/2000/svg" xmlns:xlink="http://www.w3.org/1999/xlink">
<g id="graph0" class="graph" transform="scale(1 1) rotate(0) translate(4 169.8)">
<title>dependencies</title>
<polygon fill="white" stroke="transparent" points="-4,4 -4,-169.8 1728,-169.8 1728,4 -4,4"/>
<text text-anchor="middle" x="862" y="-8.2" font-family="sans-serif" font-size="14.00">dependencies</text>
<g id="clust1" class="cluster">
<title>cluster_ConfigurationModule</title>
<polygon fill="none" stroke="black" stroke-dasharray="1,5" points="8,-32.8 8,-157.8 1716,-157.8 1716,-32.8 8,-32.8"/>
</g>
<g id="clust4" class="cluster">
<title>cluster_ConfigurationModule_exports</title>
<polygon fill="none" stroke="black" points="16,-97.8 16,-149.8 1708,-149.8 1708,-97.8 16,-97.8"/>
</g>
<!-- InjectionName.ACCESS_CONTROL_ALLOW_ORIGIN  -->
<g id="node1" class="node">
<title>InjectionName.ACCESS_CONTROL_ALLOW_ORIGIN </title>
<polygon fill="#fb8072" stroke="black" points="1699.74,-141.8 1354.26,-141.8 1354.26,-105.8 1699.74,-105.8 1699.74,-141.8"/>
<text text-anchor="middle" x="1527" y="-119.6" font-family="Times,serif" font-size="14.00">InjectionName.ACCESS_CONTROL_ALLOW_ORIGIN </text>
</g>
<!-- InjectionName.API_KEY_HEADER_NAME  -->
<g id="node2" class="node">
<title>InjectionName.API_KEY_HEADER_NAME </title>
<polygon fill="#fb8072" stroke="black" points="1336.01,-141.8 1059.99,-141.8 1059.99,-105.8 1336.01,-105.8 1336.01,-141.8"/>
<text text-anchor="middle" x="1198" y="-119.6" font-family="Times,serif" font-size="14.00">InjectionName.API_KEY_HEADER_NAME </text>
</g>
<!-- InjectionName.HTTP_CHECKS  -->
<g id="node3" class="node">
<title>InjectionName.HTTP_CHECKS </title>
<polygon fill="#fb8072" stroke="black" points="1041.92,-141.8 838.08,-141.8 838.08,-105.8 1041.92,-105.8 1041.92,-141.8"/>
<text text-anchor="middle" x="940" y="-119.6" font-family="Times,serif" font-size="14.00">InjectionName.HTTP_CHECKS </text>
</g>
<!-- InjectionName.PORT  -->
<g id="node4" class="node">
<title>InjectionName.PORT </title>
<polygon fill="#fb8072" stroke="black" points="819.97,-141.8 678.03,-141.8 678.03,-105.8 819.97,-105.8 819.97,-141.8"/>
<text text-anchor="middle" x="749" y="-119.6" font-family="Times,serif" font-size="14.00">InjectionName.PORT </text>
</g>
<!-- InjectionName.USERS_GRPC_SERVICE_API_KEY  -->
<g id="node5" class="node">
<title>InjectionName.USERS_GRPC_SERVICE_API_KEY </title>
<polygon fill="#fb8072" stroke="black" points="660,-141.8 336,-141.8 336,-105.8 660,-105.8 660,-141.8"/>
<text text-anchor="middle" x="498" y="-119.6" font-family="Times,serif" font-size="14.00">InjectionName.USERS_GRPC_SERVICE_API_KEY </text>
</g>
<!-- InjectionName.USERS_GRPC_SERVICE_URL  -->
<g id="node6" class="node">
<title>InjectionName.USERS_GRPC_SERVICE_URL </title>
<polygon fill="#fb8072" stroke="black" points="317.67,-141.8 24.33,-141.8 24.33,-105.8 317.67,-105.8 317.67,-141.8"/>
<text text-anchor="middle" x="171" y="-119.6" font-family="Times,serif" font-size="14.00">InjectionName.USERS_GRPC_SERVICE_URL </text>
</g>
<!-- ConfigurationModule -->
<g id="node7" class="node">
<title>ConfigurationModule</title>
<polygon fill="#8dd3c7" stroke="black" points="913.1,-76.8 910.1,-80.8 889.1,-80.8 886.1,-76.8 774.9,-76.8 774.9,-40.8 913.1,-40.8 913.1,-76.8"/>
<text text-anchor="middle" x="844" y="-54.6" font-family="Times,serif" font-size="14.00">ConfigurationModule</text>
</g>
<!-- ConfigurationModule&#45;&gt;InjectionName.ACCESS_CONTROL_ALLOW_ORIGIN  -->
<g id="edge1" class="edge">
<title>ConfigurationModule&#45;&gt;InjectionName.ACCESS_CONTROL_ALLOW_ORIGIN </title>
<path fill="none" stroke="black" stroke-dasharray="5,2" d="M913.25,-52.8C1086.89,-52.8 1527,-52.8 1527,-52.8 1527,-52.8 1527,-95.52 1527,-95.52"/>
<polygon fill="black" stroke="black" points="1523.5,-95.52 1527,-105.52 1530.5,-95.52 1523.5,-95.52"/>
</g>
<!-- ConfigurationModule&#45;&gt;InjectionName.API_KEY_HEADER_NAME  -->
<g id="edge2" class="edge">
<title>ConfigurationModule&#45;&gt;InjectionName.API_KEY_HEADER_NAME </title>
<path fill="none" stroke="black" stroke-dasharray="5,2" d="M913.1,-64.8C1016.12,-64.8 1198,-64.8 1198,-64.8 1198,-64.8 1198,-95.78 1198,-95.78"/>
<polygon fill="black" stroke="black" points="1194.5,-95.78 1198,-105.78 1201.5,-95.78 1194.5,-95.78"/>
</g>
<!-- ConfigurationModule&#45;&gt;InjectionName.HTTP_CHECKS  -->
<g id="edge3" class="edge">
<title>ConfigurationModule&#45;&gt;InjectionName.HTTP_CHECKS </title>
<path fill="none" stroke="black" stroke-dasharray="5,2" d="M875.67,-76.91C875.67,-76.91 875.67,-95.79 875.67,-95.79"/>
<polygon fill="black" stroke="black" points="872.17,-95.79 875.67,-105.79 879.17,-95.79 872.17,-95.79"/>
</g>
<!-- ConfigurationModule&#45;&gt;InjectionName.PORT  -->
<g id="edge4" class="edge">
<title>ConfigurationModule&#45;&gt;InjectionName.PORT </title>
<path fill="none" stroke="black" stroke-dasharray="5,2" d="M797.47,-76.91C797.47,-76.91 797.47,-95.79 797.47,-95.79"/>
<polygon fill="black" stroke="black" points="793.97,-95.79 797.47,-105.79 800.97,-95.79 793.97,-95.79"/>
</g>
<!-- ConfigurationModule&#45;&gt;InjectionName.USERS_GRPC_SERVICE_API_KEY  -->
<g id="edge5" class="edge">
<title>ConfigurationModule&#45;&gt;InjectionName.USERS_GRPC_SERVICE_API_KEY </title>
<path fill="none" stroke="black" stroke-dasharray="5,2" d="M774.81,-64.8C673.84,-64.8 498,-64.8 498,-64.8 498,-64.8 498,-95.78 498,-95.78"/>
<polygon fill="black" stroke="black" points="494.5,-95.78 498,-105.78 501.5,-95.78 494.5,-95.78"/>
</g>
<!-- ConfigurationModule&#45;&gt;InjectionName.USERS_GRPC_SERVICE_URL  -->
<g id="edge6" class="edge">
<title>ConfigurationModule&#45;&gt;InjectionName.USERS_GRPC_SERVICE_URL </title>
<path fill="none" stroke="black" stroke-dasharray="5,2" d="M774.83,-52.8C603.09,-52.8 171,-52.8 171,-52.8 171,-52.8 171,-95.52 171,-95.52"/>
<polygon fill="black" stroke="black" points="167.5,-95.52 171,-105.52 174.5,-95.52 167.5,-95.52"/>
</g>
</g>
</svg>
