<?xml version="1.0" encoding="UTF-8" standalone="no"?>
<!DOCTYPE svg PUBLIC "-//W3C//DTD SVG 1.1//EN"
 "http://www.w3.org/Graphics/SVG/1.1/DTD/svg11.dtd">
<!-- Generated by graphviz version 5.0.0 (20220707.1540)
 -->
<!-- Title: dependencies Pages: 1 -->
<svg width="420pt" height="174pt"
 viewBox="0.00 0.00 420.00 173.80" xmlns="http://www.w3.org/2000/svg" xmlns:xlink="http://www.w3.org/1999/xlink">
<g id="graph0" class="graph" transform="scale(1 1) rotate(0) translate(4 169.8)">
<title>dependencies</title>
<polygon fill="white" stroke="transparent" points="-4,4 -4,-169.8 416,-169.8 416,4 -4,4"/>
<text text-anchor="middle" x="206" y="-8.2" font-family="sans-serif" font-size="14.00">dependencies</text>
<g id="clust1" class="cluster">
<title>cluster_ConfigurationModule</title>
<polygon fill="none" stroke="black" stroke-dasharray="1,5" points="8,-32.8 8,-157.8 404,-157.8 404,-32.8 8,-32.8"/>
</g>
<g id="clust4" class="cluster">
<title>cluster_ConfigurationModule_exports</title>
<polygon fill="none" stroke="black" points="16,-97.8 16,-149.8 396,-149.8 396,-97.8 16,-97.8"/>
</g>
<!-- InjectionName.HTTP_CHECKS  -->
<g id="node1" class="node">
<title>InjectionName.HTTP_CHECKS </title>
<polygon fill="#fb8072" stroke="black" points="387.92,-141.8 184.08,-141.8 184.08,-105.8 387.92,-105.8 387.92,-141.8"/>
<text text-anchor="middle" x="286" y="-119.6" font-family="Times,serif" font-size="14.00">InjectionName.HTTP_CHECKS </text>
</g>
<!-- InjectionName.PORT  -->
<g id="node2" class="node">
<title>InjectionName.PORT </title>
<polygon fill="#fb8072" stroke="black" points="165.97,-141.8 24.03,-141.8 24.03,-105.8 165.97,-105.8 165.97,-141.8"/>
<text text-anchor="middle" x="95" y="-119.6" font-family="Times,serif" font-size="14.00">InjectionName.PORT </text>
</g>
<!-- ConfigurationModule -->
<g id="node3" class="node">
<title>ConfigurationModule</title>
<polygon fill="#8dd3c7" stroke="black" points="259.1,-76.8 256.1,-80.8 235.1,-80.8 232.1,-76.8 120.9,-76.8 120.9,-40.8 259.1,-40.8 259.1,-76.8"/>
<text text-anchor="middle" x="190" y="-54.6" font-family="Times,serif" font-size="14.00">ConfigurationModule</text>
</g>
<!-- ConfigurationModule&#45;&gt;InjectionName.HTTP_CHECKS  -->
<g id="edge1" class="edge">
<title>ConfigurationModule&#45;&gt;InjectionName.HTTP_CHECKS </title>
<path fill="none" stroke="black" stroke-dasharray="5,2" d="M221.67,-76.91C221.67,-76.91 221.67,-95.79 221.67,-95.79"/>
<polygon fill="black" stroke="black" points="218.17,-95.79 221.67,-105.79 225.17,-95.79 218.17,-95.79"/>
</g>
<!-- ConfigurationModule&#45;&gt;InjectionName.PORT  -->
<g id="edge2" class="edge">
<title>ConfigurationModule&#45;&gt;InjectionName.PORT </title>
<path fill="none" stroke="black" stroke-dasharray="5,2" d="M143.47,-76.91C143.47,-76.91 143.47,-95.79 143.47,-95.79"/>
<polygon fill="black" stroke="black" points="139.97,-95.79 143.47,-105.79 146.97,-95.79 139.97,-95.79"/>
</g>
</g>
</svg>
