<?xml version="1.0" encoding="UTF-8" standalone="no"?>
<!DOCTYPE svg PUBLIC "-//W3C//DTD SVG 1.1//EN"
 "http://www.w3.org/Graphics/SVG/1.1/DTD/svg11.dtd">
<!-- Generated by graphviz version 5.0.0 (20220707.1540)
 -->
<!-- Title: dependencies Pages: 1 -->
<svg width="540pt" height="174pt"
 viewBox="0.00 0.00 540.00 173.80" xmlns="http://www.w3.org/2000/svg" xmlns:xlink="http://www.w3.org/1999/xlink">
<g id="graph0" class="graph" transform="scale(1 1) rotate(0) translate(4 169.8)">
<title>dependencies</title>
<polygon fill="white" stroke="transparent" points="-4,4 -4,-169.8 536,-169.8 536,4 -4,4"/>
<text text-anchor="middle" x="266" y="-8.2" font-family="sans-serif" font-size="14.00">dependencies</text>
<g id="clust1" class="cluster">
<title>cluster_HealthModule</title>
<polygon fill="none" stroke="black" stroke-dasharray="1,5" points="8,-32.8 8,-157.8 524,-157.8 524,-32.8 8,-32.8"/>
</g>
<g id="clust3" class="cluster">
<title>cluster_HealthModule_imports</title>
<polygon fill="none" stroke="black" points="16,-40.8 16,-92.8 516,-92.8 516,-40.8 16,-40.8"/>
</g>
<!-- ConfigurationModule -->
<g id="node1" class="node">
<title>ConfigurationModule</title>
<polygon fill="#8dd3c7" stroke="black" points="508.1,-84.8 505.1,-88.8 484.1,-88.8 481.1,-84.8 369.9,-84.8 369.9,-48.8 508.1,-48.8 508.1,-84.8"/>
<text text-anchor="middle" x="439" y="-62.6" font-family="Times,serif" font-size="14.00">ConfigurationModule</text>
</g>
<!-- HealthModule -->
<g id="node4" class="node">
<title>HealthModule</title>
<polygon fill="#8dd3c7" stroke="black" points="322.37,-149.8 319.37,-153.8 298.37,-153.8 295.37,-149.8 225.63,-149.8 225.63,-113.8 322.37,-113.8 322.37,-149.8"/>
<text text-anchor="middle" x="274" y="-127.6" font-family="Times,serif" font-size="14.00">HealthModule</text>
</g>
<!-- ConfigurationModule&#45;&gt;HealthModule -->
<g id="edge1" class="edge">
<title>ConfigurationModule&#45;&gt;HealthModule</title>
<path fill="none" stroke="black" d="M439,-84.91C439,-104.14 439,-131.8 439,-131.8 439,-131.8 332.61,-131.8 332.61,-131.8"/>
<polygon fill="black" stroke="black" points="332.61,-128.3 322.61,-131.8 332.61,-135.3 332.61,-128.3"/>
</g>
<!-- HealthUsersGrpcModule -->
<g id="node2" class="node">
<title>HealthUsersGrpcModule</title>
<polygon fill="#8dd3c7" stroke="black" points="352.24,-84.8 349.24,-88.8 328.24,-88.8 325.24,-84.8 195.76,-84.8 195.76,-48.8 352.24,-48.8 352.24,-84.8"/>
<text text-anchor="middle" x="274" y="-62.6" font-family="Times,serif" font-size="14.00">HealthUsersGrpcModule</text>
</g>
<!-- HealthUsersGrpcModule&#45;&gt;HealthModule -->
<g id="edge2" class="edge">
<title>HealthUsersGrpcModule&#45;&gt;HealthModule</title>
<path fill="none" stroke="black" d="M274,-84.91C274,-84.91 274,-103.79 274,-103.79"/>
<polygon fill="black" stroke="black" points="270.5,-103.79 274,-113.79 277.5,-103.79 270.5,-103.79"/>
</g>
<!-- HealthUsersRestModule -->
<g id="node3" class="node">
<title>HealthUsersRestModule</title>
<polygon fill="#8dd3c7" stroke="black" points="177.64,-84.8 174.64,-88.8 153.64,-88.8 150.64,-84.8 24.36,-84.8 24.36,-48.8 177.64,-48.8 177.64,-84.8"/>
<text text-anchor="middle" x="101" y="-62.6" font-family="Times,serif" font-size="14.00">HealthUsersRestModule</text>
</g>
<!-- HealthUsersRestModule&#45;&gt;HealthModule -->
<g id="edge3" class="edge">
<title>HealthUsersRestModule&#45;&gt;HealthModule</title>
<path fill="none" stroke="black" d="M101,-84.91C101,-104.14 101,-131.8 101,-131.8 101,-131.8 215.35,-131.8 215.35,-131.8"/>
<polygon fill="black" stroke="black" points="215.35,-135.3 225.35,-131.8 215.35,-128.3 215.35,-135.3"/>
</g>
</g>
</svg>
