<?xml version="1.0" encoding="UTF-8" standalone="no"?>
<!DOCTYPE svg PUBLIC "-//W3C//DTD SVG 1.1//EN"
 "http://www.w3.org/Graphics/SVG/1.1/DTD/svg11.dtd">
<!-- Generated by graphviz version 5.0.0 (20220707.1540)
 -->
<!-- Title: dependencies Pages: 1 -->
<svg width="738pt" height="174pt"
 viewBox="0.00 0.00 738.00 173.80" xmlns="http://www.w3.org/2000/svg" xmlns:xlink="http://www.w3.org/1999/xlink">
<g id="graph0" class="graph" transform="scale(1 1) rotate(0) translate(4 169.8)">
<title>dependencies</title>
<polygon fill="white" stroke="transparent" points="-4,4 -4,-169.8 734,-169.8 734,4 -4,4"/>
<text text-anchor="middle" x="365" y="-8.2" font-family="sans-serif" font-size="14.00">dependencies</text>
<g id="clust1" class="cluster">
<title>cluster_HealthModule</title>
<polygon fill="none" stroke="black" stroke-dasharray="1,5" points="8,-32.8 8,-157.8 722,-157.8 722,-32.8 8,-32.8"/>
</g>
<g id="clust3" class="cluster">
<title>cluster_HealthModule_imports</title>
<polygon fill="none" stroke="black" points="16,-40.8 16,-92.8 714,-92.8 714,-40.8 16,-40.8"/>
</g>
<!-- ConfigurationModule -->
<g id="node1" class="node">
<title>ConfigurationModule</title>
<polygon fill="#8dd3c7" stroke="black" points="706.1,-84.8 703.1,-88.8 682.1,-88.8 679.1,-84.8 567.9,-84.8 567.9,-48.8 706.1,-48.8 706.1,-84.8"/>
<text text-anchor="middle" x="637" y="-62.6" font-family="Times,serif" font-size="14.00">ConfigurationModule</text>
</g>
<!-- HealthModule -->
<g id="node5" class="node">
<title>HealthModule</title>
<polygon fill="#8dd3c7" stroke="black" points="415.37,-149.8 412.37,-153.8 391.37,-153.8 388.37,-149.8 318.63,-149.8 318.63,-113.8 415.37,-113.8 415.37,-149.8"/>
<text text-anchor="middle" x="367" y="-127.6" font-family="Times,serif" font-size="14.00">HealthModule</text>
</g>
<!-- ConfigurationModule&#45;&gt;HealthModule -->
<g id="edge1" class="edge">
<title>ConfigurationModule&#45;&gt;HealthModule</title>
<path fill="none" stroke="black" d="M637,-84.91C637,-104.14 637,-131.8 637,-131.8 637,-131.8 425.58,-131.8 425.58,-131.8"/>
<polygon fill="black" stroke="black" points="425.58,-128.3 415.58,-131.8 425.58,-135.3 425.58,-128.3"/>
</g>
<!-- HealthAuthenticationModule -->
<g id="node2" class="node">
<title>HealthAuthenticationModule</title>
<polygon fill="#8dd3c7" stroke="black" points="550.07,-84.8 547.07,-88.8 526.07,-88.8 523.07,-84.8 369.93,-84.8 369.93,-48.8 550.07,-48.8 550.07,-84.8"/>
<text text-anchor="middle" x="460" y="-62.6" font-family="Times,serif" font-size="14.00">HealthAuthenticationModule</text>
</g>
<!-- HealthAuthenticationModule&#45;&gt;HealthModule -->
<g id="edge2" class="edge">
<title>HealthAuthenticationModule&#45;&gt;HealthModule</title>
<path fill="none" stroke="black" d="M392.7,-84.91C392.7,-84.91 392.7,-103.79 392.7,-103.79"/>
<polygon fill="black" stroke="black" points="389.2,-103.79 392.7,-113.79 396.2,-103.79 389.2,-103.79"/>
</g>
<!-- HealthUsersGrpcModule -->
<g id="node3" class="node">
<title>HealthUsersGrpcModule</title>
<polygon fill="#8dd3c7" stroke="black" points="352.24,-84.8 349.24,-88.8 328.24,-88.8 325.24,-84.8 195.76,-84.8 195.76,-48.8 352.24,-48.8 352.24,-84.8"/>
<text text-anchor="middle" x="274" y="-62.6" font-family="Times,serif" font-size="14.00">HealthUsersGrpcModule</text>
</g>
<!-- HealthUsersGrpcModule&#45;&gt;HealthModule -->
<g id="edge3" class="edge">
<title>HealthUsersGrpcModule&#45;&gt;HealthModule</title>
<path fill="none" stroke="black" d="M335.47,-84.91C335.47,-84.91 335.47,-103.79 335.47,-103.79"/>
<polygon fill="black" stroke="black" points="331.97,-103.79 335.47,-113.79 338.97,-103.79 331.97,-103.79"/>
</g>
<!-- HealthUsersRestModule -->
<g id="node4" class="node">
<title>HealthUsersRestModule</title>
<polygon fill="#8dd3c7" stroke="black" points="177.64,-84.8 174.64,-88.8 153.64,-88.8 150.64,-84.8 24.36,-84.8 24.36,-48.8 177.64,-48.8 177.64,-84.8"/>
<text text-anchor="middle" x="101" y="-62.6" font-family="Times,serif" font-size="14.00">HealthUsersRestModule</text>
</g>
<!-- HealthUsersRestModule&#45;&gt;HealthModule -->
<g id="edge4" class="edge">
<title>HealthUsersRestModule&#45;&gt;HealthModule</title>
<path fill="none" stroke="black" d="M101,-84.91C101,-104.14 101,-131.8 101,-131.8 101,-131.8 308.52,-131.8 308.52,-131.8"/>
<polygon fill="black" stroke="black" points="308.52,-135.3 318.52,-131.8 308.52,-128.3 308.52,-135.3"/>
</g>
</g>
</svg>
