<?xml version="1.0" encoding="UTF-8" standalone="no"?>
<!DOCTYPE svg PUBLIC "-//W3C//DTD SVG 1.1//EN"
 "http://www.w3.org/Graphics/SVG/1.1/DTD/svg11.dtd">
<!-- Generated by graphviz version 5.0.0 (20220707.1540)
 -->
<!-- Title: dependencies Pages: 1 -->
<svg width="773pt" height="174pt"
 viewBox="0.00 0.00 773.00 173.80" xmlns="http://www.w3.org/2000/svg" xmlns:xlink="http://www.w3.org/1999/xlink">
<g id="graph0" class="graph" transform="scale(1 1) rotate(0) translate(4 169.8)">
<title>dependencies</title>
<polygon fill="white" stroke="transparent" points="-4,4 -4,-169.8 769,-169.8 769,4 -4,4"/>
<text text-anchor="middle" x="382.5" y="-8.2" font-family="sans-serif" font-size="14.00">dependencies</text>
<g id="clust1" class="cluster">
<title>cluster_AppModule</title>
<polygon fill="none" stroke="black" stroke-dasharray="1,5" points="8,-32.8 8,-157.8 757,-157.8 757,-32.8 8,-32.8"/>
</g>
<g id="clust3" class="cluster">
<title>cluster_AppModule_imports</title>
<polygon fill="none" stroke="black" points="16,-40.8 16,-92.8 749,-92.8 749,-40.8 16,-40.8"/>
</g>
<!-- ConfigurationModule -->
<g id="node1" class="node">
<title>ConfigurationModule</title>
<polygon fill="#8dd3c7" stroke="black" points="741.1,-84.8 738.1,-88.8 717.1,-88.8 714.1,-84.8 602.9,-84.8 602.9,-48.8 741.1,-48.8 741.1,-84.8"/>
<text text-anchor="middle" x="672" y="-62.6" font-family="Times,serif" font-size="14.00">ConfigurationModule</text>
</g>
<!-- AppModule -->
<g id="node6" class="node">
<title>AppModule</title>
<polygon fill="#8dd3c7" stroke="black" points="460.66,-149.8 457.66,-153.8 436.66,-153.8 433.66,-149.8 377.34,-149.8 377.34,-113.8 460.66,-113.8 460.66,-149.8"/>
<text text-anchor="middle" x="419" y="-127.6" font-family="Times,serif" font-size="14.00">AppModule</text>
</g>
<!-- ConfigurationModule&#45;&gt;AppModule -->
<g id="edge1" class="edge">
<title>ConfigurationModule&#45;&gt;AppModule</title>
<path fill="none" stroke="black" d="M672,-85.08C672,-106.12 672,-137.8 672,-137.8 672,-137.8 470.78,-137.8 470.78,-137.8"/>
<polygon fill="black" stroke="black" points="470.78,-134.3 460.78,-137.8 470.78,-141.3 470.78,-134.3"/>
</g>
<!-- GuardsModule -->
<g id="node2" class="node">
<title>GuardsModule</title>
<polygon fill="#8dd3c7" stroke="black" points="584.99,-84.8 581.99,-88.8 560.99,-88.8 557.99,-84.8 485.01,-84.8 485.01,-48.8 584.99,-48.8 584.99,-84.8"/>
<text text-anchor="middle" x="535" y="-62.6" font-family="Times,serif" font-size="14.00">GuardsModule</text>
</g>
<!-- GuardsModule&#45;&gt;AppModule -->
<g id="edge2" class="edge">
<title>GuardsModule&#45;&gt;AppModule</title>
<path fill="none" stroke="black" d="M535,-84.82C535,-102.17 535,-125.8 535,-125.8 535,-125.8 470.88,-125.8 470.88,-125.8"/>
<polygon fill="black" stroke="black" points="470.88,-122.3 460.88,-125.8 470.88,-129.3 470.88,-122.3"/>
</g>
<!-- HealthModule -->
<g id="node3" class="node">
<title>HealthModule</title>
<polygon fill="#8dd3c7" stroke="black" points="467.37,-84.8 464.37,-88.8 443.37,-88.8 440.37,-84.8 370.63,-84.8 370.63,-48.8 467.37,-48.8 467.37,-84.8"/>
<text text-anchor="middle" x="419" y="-62.6" font-family="Times,serif" font-size="14.00">HealthModule</text>
</g>
<!-- HealthModule&#45;&gt;AppModule -->
<g id="edge3" class="edge">
<title>HealthModule&#45;&gt;AppModule</title>
<path fill="none" stroke="black" d="M419,-84.91C419,-84.91 419,-103.79 419,-103.79"/>
<polygon fill="black" stroke="black" points="415.5,-103.79 419,-113.79 422.5,-103.79 415.5,-103.79"/>
</g>
<!-- HealthUsersGrpcModule -->
<g id="node4" class="node">
<title>HealthUsersGrpcModule</title>
<polygon fill="#8dd3c7" stroke="black" points="352.24,-84.8 349.24,-88.8 328.24,-88.8 325.24,-84.8 195.76,-84.8 195.76,-48.8 352.24,-48.8 352.24,-84.8"/>
<text text-anchor="middle" x="274" y="-62.6" font-family="Times,serif" font-size="14.00">HealthUsersGrpcModule</text>
</g>
<!-- HealthUsersGrpcModule&#45;&gt;AppModule -->
<g id="edge4" class="edge">
<title>HealthUsersGrpcModule&#45;&gt;AppModule</title>
<path fill="none" stroke="black" d="M274,-84.82C274,-102.17 274,-125.8 274,-125.8 274,-125.8 367.06,-125.8 367.06,-125.8"/>
<polygon fill="black" stroke="black" points="367.06,-129.3 377.06,-125.8 367.06,-122.3 367.06,-129.3"/>
</g>
<!-- HealthUsersRestModule -->
<g id="node5" class="node">
<title>HealthUsersRestModule</title>
<polygon fill="#8dd3c7" stroke="black" points="177.64,-84.8 174.64,-88.8 153.64,-88.8 150.64,-84.8 24.36,-84.8 24.36,-48.8 177.64,-48.8 177.64,-84.8"/>
<text text-anchor="middle" x="101" y="-62.6" font-family="Times,serif" font-size="14.00">HealthUsersRestModule</text>
</g>
<!-- HealthUsersRestModule&#45;&gt;AppModule -->
<g id="edge5" class="edge">
<title>HealthUsersRestModule&#45;&gt;AppModule</title>
<path fill="none" stroke="black" d="M101,-85.08C101,-106.12 101,-137.8 101,-137.8 101,-137.8 367.1,-137.8 367.1,-137.8"/>
<polygon fill="black" stroke="black" points="367.1,-141.3 377.1,-137.8 367.1,-134.3 367.1,-141.3"/>
</g>
</g>
</svg>
