<?xml version="1.0" encoding="UTF-8" standalone="no"?>
<!DOCTYPE svg PUBLIC "-//W3C//DTD SVG 1.1//EN"
 "http://www.w3.org/Graphics/SVG/1.1/DTD/svg11.dtd">
<!-- Generated by graphviz version 5.0.0 (20220707.1540)
 -->
<!-- Title: dependencies Pages: 1 -->
<svg width="971pt" height="174pt"
 viewBox="0.00 0.00 971.00 173.80" xmlns="http://www.w3.org/2000/svg" xmlns:xlink="http://www.w3.org/1999/xlink">
<g id="graph0" class="graph" transform="scale(1 1) rotate(0) translate(4 169.8)">
<title>dependencies</title>
<polygon fill="white" stroke="transparent" points="-4,4 -4,-169.8 967,-169.8 967,4 -4,4"/>
<text text-anchor="middle" x="481.5" y="-8.2" font-family="sans-serif" font-size="14.00">dependencies</text>
<g id="clust1" class="cluster">
<title>cluster_AppModule</title>
<polygon fill="none" stroke="black" stroke-dasharray="1,5" points="8,-32.8 8,-157.8 955,-157.8 955,-32.8 8,-32.8"/>
</g>
<g id="clust3" class="cluster">
<title>cluster_AppModule_imports</title>
<polygon fill="none" stroke="black" points="16,-40.8 16,-92.8 947,-92.8 947,-40.8 16,-40.8"/>
</g>
<!-- ConfigurationModule -->
<g id="node1" class="node">
<title>ConfigurationModule</title>
<polygon fill="#8dd3c7" stroke="black" points="939.1,-84.8 936.1,-88.8 915.1,-88.8 912.1,-84.8 800.9,-84.8 800.9,-48.8 939.1,-48.8 939.1,-84.8"/>
<text text-anchor="middle" x="870" y="-62.6" font-family="Times,serif" font-size="14.00">ConfigurationModule</text>
</g>
<!-- AppModule -->
<g id="node7" class="node">
<title>AppModule</title>
<polygon fill="#8dd3c7" stroke="black" points="538.66,-149.8 535.66,-153.8 514.66,-153.8 511.66,-149.8 455.34,-149.8 455.34,-113.8 538.66,-113.8 538.66,-149.8"/>
<text text-anchor="middle" x="497" y="-127.6" font-family="Times,serif" font-size="14.00">AppModule</text>
</g>
<!-- ConfigurationModule&#45;&gt;AppModule -->
<g id="edge1" class="edge">
<title>ConfigurationModule&#45;&gt;AppModule</title>
<path fill="none" stroke="black" d="M870,-85.08C870,-106.12 870,-137.8 870,-137.8 870,-137.8 548.7,-137.8 548.7,-137.8"/>
<polygon fill="black" stroke="black" points="548.7,-134.3 538.7,-137.8 548.7,-141.3 548.7,-134.3"/>
</g>
<!-- GuardsModule -->
<g id="node2" class="node">
<title>GuardsModule</title>
<polygon fill="#8dd3c7" stroke="black" points="782.99,-84.8 779.99,-88.8 758.99,-88.8 755.99,-84.8 683.01,-84.8 683.01,-48.8 782.99,-48.8 782.99,-84.8"/>
<text text-anchor="middle" x="733" y="-62.6" font-family="Times,serif" font-size="14.00">GuardsModule</text>
</g>
<!-- GuardsModule&#45;&gt;AppModule -->
<g id="edge2" class="edge">
<title>GuardsModule&#45;&gt;AppModule</title>
<path fill="none" stroke="black" d="M733,-84.82C733,-102.17 733,-125.8 733,-125.8 733,-125.8 548.92,-125.8 548.92,-125.8"/>
<polygon fill="black" stroke="black" points="548.92,-122.3 538.92,-125.8 548.92,-129.3 548.92,-122.3"/>
</g>
<!-- HealthAuthenticationModule -->
<g id="node3" class="node">
<title>HealthAuthenticationModule</title>
<polygon fill="#8dd3c7" stroke="black" points="665.07,-84.8 662.07,-88.8 641.07,-88.8 638.07,-84.8 484.93,-84.8 484.93,-48.8 665.07,-48.8 665.07,-84.8"/>
<text text-anchor="middle" x="575" y="-62.6" font-family="Times,serif" font-size="14.00">HealthAuthenticationModule</text>
</g>
<!-- HealthAuthenticationModule&#45;&gt;AppModule -->
<g id="edge3" class="edge">
<title>HealthAuthenticationModule&#45;&gt;AppModule</title>
<path fill="none" stroke="black" d="M511.9,-84.91C511.9,-84.91 511.9,-103.79 511.9,-103.79"/>
<polygon fill="black" stroke="black" points="508.4,-103.79 511.9,-113.79 515.4,-103.79 508.4,-103.79"/>
</g>
<!-- HealthModule -->
<g id="node4" class="node">
<title>HealthModule</title>
<polygon fill="#8dd3c7" stroke="black" points="467.37,-84.8 464.37,-88.8 443.37,-88.8 440.37,-84.8 370.63,-84.8 370.63,-48.8 467.37,-48.8 467.37,-84.8"/>
<text text-anchor="middle" x="419" y="-62.6" font-family="Times,serif" font-size="14.00">HealthModule</text>
</g>
<!-- HealthModule&#45;&gt;AppModule -->
<g id="edge4" class="edge">
<title>HealthModule&#45;&gt;AppModule</title>
<path fill="none" stroke="black" d="M461.3,-84.91C461.3,-84.91 461.3,-103.79 461.3,-103.79"/>
<polygon fill="black" stroke="black" points="457.8,-103.79 461.3,-113.79 464.8,-103.79 457.8,-103.79"/>
</g>
<!-- HealthUsersGrpcModule -->
<g id="node5" class="node">
<title>HealthUsersGrpcModule</title>
<polygon fill="#8dd3c7" stroke="black" points="352.24,-84.8 349.24,-88.8 328.24,-88.8 325.24,-84.8 195.76,-84.8 195.76,-48.8 352.24,-48.8 352.24,-84.8"/>
<text text-anchor="middle" x="274" y="-62.6" font-family="Times,serif" font-size="14.00">HealthUsersGrpcModule</text>
</g>
<!-- HealthUsersGrpcModule&#45;&gt;AppModule -->
<g id="edge5" class="edge">
<title>HealthUsersGrpcModule&#45;&gt;AppModule</title>
<path fill="none" stroke="black" d="M274,-84.82C274,-102.17 274,-125.8 274,-125.8 274,-125.8 445.32,-125.8 445.32,-125.8"/>
<polygon fill="black" stroke="black" points="445.32,-129.3 455.32,-125.8 445.32,-122.3 445.32,-129.3"/>
</g>
<!-- HealthUsersRestModule -->
<g id="node6" class="node">
<title>HealthUsersRestModule</title>
<polygon fill="#8dd3c7" stroke="black" points="177.64,-84.8 174.64,-88.8 153.64,-88.8 150.64,-84.8 24.36,-84.8 24.36,-48.8 177.64,-48.8 177.64,-84.8"/>
<text text-anchor="middle" x="101" y="-62.6" font-family="Times,serif" font-size="14.00">HealthUsersRestModule</text>
</g>
<!-- HealthUsersRestModule&#45;&gt;AppModule -->
<g id="edge6" class="edge">
<title>HealthUsersRestModule&#45;&gt;AppModule</title>
<path fill="none" stroke="black" d="M101,-85.08C101,-106.12 101,-137.8 101,-137.8 101,-137.8 445,-137.8 445,-137.8"/>
<polygon fill="black" stroke="black" points="445,-141.3 455,-137.8 445,-134.3 445,-141.3"/>
</g>
</g>
</svg>
