<?xml version="1.0" encoding="UTF-8" standalone="no"?>
<!DOCTYPE svg PUBLIC "-//W3C//DTD SVG 1.1//EN"
 "http://www.w3.org/Graphics/SVG/1.1/DTD/svg11.dtd">
<!-- Generated by graphviz version 5.0.0 (20220707.1540)
 -->
<!-- Title: dependencies Pages: 1 -->
<svg width="655pt" height="174pt"
 viewBox="0.00 0.00 655.00 173.80" xmlns="http://www.w3.org/2000/svg" xmlns:xlink="http://www.w3.org/1999/xlink">
<g id="graph0" class="graph" transform="scale(1 1) rotate(0) translate(4 169.8)">
<title>dependencies</title>
<polygon fill="white" stroke="transparent" points="-4,4 -4,-169.8 651,-169.8 651,4 -4,4"/>
<text text-anchor="middle" x="323.5" y="-8.2" font-family="sans-serif" font-size="14.00">dependencies</text>
<g id="clust1" class="cluster">
<title>cluster_AppModule</title>
<polygon fill="none" stroke="black" stroke-dasharray="1,5" points="8,-32.8 8,-157.8 639,-157.8 639,-32.8 8,-32.8"/>
</g>
<g id="clust3" class="cluster">
<title>cluster_AppModule_imports</title>
<polygon fill="none" stroke="black" points="16,-40.8 16,-92.8 631,-92.8 631,-40.8 16,-40.8"/>
</g>
<!-- ConfigurationModule -->
<g id="node1" class="node">
<title>ConfigurationModule</title>
<polygon fill="#8dd3c7" stroke="black" points="623.1,-84.8 620.1,-88.8 599.1,-88.8 596.1,-84.8 484.9,-84.8 484.9,-48.8 623.1,-48.8 623.1,-84.8"/>
<text text-anchor="middle" x="554" y="-62.6" font-family="Times,serif" font-size="14.00">ConfigurationModule</text>
</g>
<!-- AppModule -->
<g id="node5" class="node">
<title>AppModule</title>
<polygon fill="#8dd3c7" stroke="black" points="387.66,-149.8 384.66,-153.8 363.66,-153.8 360.66,-149.8 304.34,-149.8 304.34,-113.8 387.66,-113.8 387.66,-149.8"/>
<text text-anchor="middle" x="346" y="-127.6" font-family="Times,serif" font-size="14.00">AppModule</text>
</g>
<!-- ConfigurationModule&#45;&gt;AppModule -->
<g id="edge1" class="edge">
<title>ConfigurationModule&#45;&gt;AppModule</title>
<path fill="none" stroke="black" d="M554,-84.91C554,-104.14 554,-131.8 554,-131.8 554,-131.8 398.09,-131.8 398.09,-131.8"/>
<polygon fill="black" stroke="black" points="398.09,-128.3 388.09,-131.8 398.09,-135.3 398.09,-128.3"/>
</g>
<!-- HealthModule -->
<g id="node2" class="node">
<title>HealthModule</title>
<polygon fill="#8dd3c7" stroke="black" points="467.37,-84.8 464.37,-88.8 443.37,-88.8 440.37,-84.8 370.63,-84.8 370.63,-48.8 467.37,-48.8 467.37,-84.8"/>
<text text-anchor="middle" x="419" y="-62.6" font-family="Times,serif" font-size="14.00">HealthModule</text>
</g>
<!-- HealthModule&#45;&gt;AppModule -->
<g id="edge2" class="edge">
<title>HealthModule&#45;&gt;AppModule</title>
<path fill="none" stroke="black" d="M379.2,-84.91C379.2,-84.91 379.2,-103.79 379.2,-103.79"/>
<polygon fill="black" stroke="black" points="375.7,-103.79 379.2,-113.79 382.7,-103.79 375.7,-103.79"/>
</g>
<!-- HealthUsersGrpcModule -->
<g id="node3" class="node">
<title>HealthUsersGrpcModule</title>
<polygon fill="#8dd3c7" stroke="black" points="352.24,-84.8 349.24,-88.8 328.24,-88.8 325.24,-84.8 195.76,-84.8 195.76,-48.8 352.24,-48.8 352.24,-84.8"/>
<text text-anchor="middle" x="274" y="-62.6" font-family="Times,serif" font-size="14.00">HealthUsersGrpcModule</text>
</g>
<!-- HealthUsersGrpcModule&#45;&gt;AppModule -->
<g id="edge3" class="edge">
<title>HealthUsersGrpcModule&#45;&gt;AppModule</title>
<path fill="none" stroke="black" d="M328.27,-84.91C328.27,-84.91 328.27,-103.79 328.27,-103.79"/>
<polygon fill="black" stroke="black" points="324.77,-103.79 328.27,-113.79 331.77,-103.79 324.77,-103.79"/>
</g>
<!-- HealthUsersRestModule -->
<g id="node4" class="node">
<title>HealthUsersRestModule</title>
<polygon fill="#8dd3c7" stroke="black" points="177.64,-84.8 174.64,-88.8 153.64,-88.8 150.64,-84.8 24.36,-84.8 24.36,-48.8 177.64,-48.8 177.64,-84.8"/>
<text text-anchor="middle" x="101" y="-62.6" font-family="Times,serif" font-size="14.00">HealthUsersRestModule</text>
</g>
<!-- HealthUsersRestModule&#45;&gt;AppModule -->
<g id="edge4" class="edge">
<title>HealthUsersRestModule&#45;&gt;AppModule</title>
<path fill="none" stroke="black" d="M101,-84.91C101,-104.14 101,-131.8 101,-131.8 101,-131.8 294.16,-131.8 294.16,-131.8"/>
<polygon fill="black" stroke="black" points="294.16,-135.3 304.16,-131.8 294.16,-128.3 294.16,-135.3"/>
</g>
</g>
</svg>
