<?xml version="1.0" encoding="UTF-8" standalone="no"?>
<!DOCTYPE svg PUBLIC "-//W3C//DTD SVG 1.1//EN"
 "http://www.w3.org/Graphics/SVG/1.1/DTD/svg11.dtd">
<!-- Generated by graphviz version 5.0.0 (20220707.1540)
 -->
<!-- Title: dependencies Pages: 1 -->
<svg width="440pt" height="247pt"
 viewBox="0.00 0.00 440.00 246.80" xmlns="http://www.w3.org/2000/svg" xmlns:xlink="http://www.w3.org/1999/xlink">
<g id="graph0" class="graph" transform="scale(1 1) rotate(0) translate(4 242.8)">
<title>dependencies</title>
<polygon fill="white" stroke="transparent" points="-4,4 -4,-242.8 436,-242.8 436,4 -4,4"/>
<text text-anchor="middle" x="216" y="-8.2" font-family="sans-serif" font-size="14.00">dependencies</text>
<g id="clust1" class="cluster">
<title>cluster_HealthUsersRestModule</title>
<polygon fill="none" stroke="black" stroke-dasharray="1,5" points="8,-32.8 8,-230.8 424,-230.8 424,-32.8 8,-32.8"/>
</g>
<g id="clust3" class="cluster">
<title>cluster_HealthUsersRestModule_imports</title>
<polygon fill="none" stroke="black" points="262,-40.8 262,-92.8 416,-92.8 416,-40.8 262,-40.8"/>
</g>
<g id="clust6" class="cluster">
<title>cluster_HealthUsersRestModule_providers</title>
<polygon fill="none" stroke="black" points="16,-40.8 16,-92.8 254,-92.8 254,-40.8 16,-40.8"/>
</g>
<g id="clust4" class="cluster">
<title>cluster_HealthUsersRestModule_exports</title>
<polygon fill="none" stroke="black" points="140,-170.8 140,-222.8 320,-222.8 320,-170.8 140,-170.8"/>
</g>
<!-- ConfigurationModule -->
<g id="node1" class="node">
<title>ConfigurationModule</title>
<polygon fill="#8dd3c7" stroke="black" points="408.1,-84.8 405.1,-88.8 384.1,-88.8 381.1,-84.8 269.9,-84.8 269.9,-48.8 408.1,-48.8 408.1,-84.8"/>
<text text-anchor="middle" x="339" y="-62.6" font-family="Times,serif" font-size="14.00">ConfigurationModule</text>
</g>
<!-- HealthUsersRestModule -->
<g id="node2" class="node">
<title>HealthUsersRestModule</title>
<polygon fill="#8dd3c7" stroke="black" points="306.64,-149.8 303.64,-153.8 282.64,-153.8 279.64,-149.8 153.36,-149.8 153.36,-113.8 306.64,-113.8 306.64,-149.8"/>
<text text-anchor="middle" x="230" y="-127.6" font-family="Times,serif" font-size="14.00">HealthUsersRestModule</text>
</g>
<!-- ConfigurationModule&#45;&gt;HealthUsersRestModule -->
<g id="edge1" class="edge">
<title>ConfigurationModule&#45;&gt;HealthUsersRestModule</title>
<path fill="none" stroke="black" d="M288.39,-84.91C288.39,-84.91 288.39,-103.79 288.39,-103.79"/>
<polygon fill="black" stroke="black" points="284.89,-103.79 288.39,-113.79 291.89,-103.79 284.89,-103.79"/>
</g>
<!-- UsersRestHealthIndicator  -->
<g id="node3" class="node">
<title>UsersRestHealthIndicator </title>
<polygon fill="#fb8072" stroke="black" points="312.12,-214.8 147.88,-214.8 147.88,-178.8 312.12,-178.8 312.12,-214.8"/>
<text text-anchor="middle" x="230" y="-192.6" font-family="Times,serif" font-size="14.00">UsersRestHealthIndicator </text>
</g>
<!-- HealthUsersRestModule&#45;&gt;UsersRestHealthIndicator  -->
<g id="edge2" class="edge">
<title>HealthUsersRestModule&#45;&gt;UsersRestHealthIndicator </title>
<path fill="none" stroke="black" stroke-dasharray="5,2" d="M230,-149.91C230,-149.91 230,-168.79 230,-168.79"/>
<polygon fill="black" stroke="black" points="226.5,-168.79 230,-178.79 233.5,-168.79 226.5,-168.79"/>
</g>
<!-- UsersRestHealthIndicator -->
<g id="node4" class="node">
<title>UsersRestHealthIndicator</title>
<ellipse fill="#fdb462" stroke="black" cx="135" cy="-66.8" rx="110.59" ry="18"/>
<text text-anchor="middle" x="135" y="-62.6" font-family="Times,serif" font-size="14.00">UsersRestHealthIndicator</text>
</g>
<!-- UsersRestHealthIndicator&#45;&gt;HealthUsersRestModule -->
<g id="edge3" class="edge">
<title>UsersRestHealthIndicator&#45;&gt;HealthUsersRestModule</title>
<path fill="none" stroke="black" d="M199.49,-81.55C199.49,-81.55 199.49,-103.39 199.49,-103.39"/>
<polygon fill="black" stroke="black" points="195.99,-103.39 199.49,-113.39 202.99,-103.39 195.99,-103.39"/>
</g>
</g>
</svg>
