<?xml version="1.0" encoding="UTF-8" standalone="no"?>
<!DOCTYPE svg PUBLIC "-//W3C//DTD SVG 1.1//EN"
 "http://www.w3.org/Graphics/SVG/1.1/DTD/svg11.dtd">
<!-- Generated by graphviz version 5.0.0 (20220707.1540)
 -->
<!-- Title: dependencies Pages: 1 -->
<svg width="483pt" height="174pt"
 viewBox="0.00 0.00 483.00 173.80" xmlns="http://www.w3.org/2000/svg" xmlns:xlink="http://www.w3.org/1999/xlink">
<g id="graph0" class="graph" transform="scale(1 1) rotate(0) translate(4 169.8)">
<title>dependencies</title>
<polygon fill="white" stroke="transparent" points="-4,4 -4,-169.8 479,-169.8 479,4 -4,4"/>
<text text-anchor="middle" x="237.5" y="-8.2" font-family="sans-serif" font-size="14.00">dependencies</text>
<g id="clust1" class="cluster">
<title>cluster_AppModule</title>
<polygon fill="none" stroke="black" stroke-dasharray="1,5" points="8,-32.8 8,-157.8 467,-157.8 467,-32.8 8,-32.8"/>
</g>
<g id="clust3" class="cluster">
<title>cluster_AppModule_imports</title>
<polygon fill="none" stroke="black" points="16,-40.8 16,-92.8 459,-92.8 459,-40.8 16,-40.8"/>
</g>
<!-- ConfigurationModule -->
<g id="node1" class="node">
<title>ConfigurationModule</title>
<polygon fill="#8dd3c7" stroke="black" points="451.1,-84.8 448.1,-88.8 427.1,-88.8 424.1,-84.8 312.9,-84.8 312.9,-48.8 451.1,-48.8 451.1,-84.8"/>
<text text-anchor="middle" x="382" y="-62.6" font-family="Times,serif" font-size="14.00">ConfigurationModule</text>
</g>
<!-- AppModule -->
<g id="node4" class="node">
<title>AppModule</title>
<polygon fill="#8dd3c7" stroke="black" points="288.66,-149.8 285.66,-153.8 264.66,-153.8 261.66,-149.8 205.34,-149.8 205.34,-113.8 288.66,-113.8 288.66,-149.8"/>
<text text-anchor="middle" x="247" y="-127.6" font-family="Times,serif" font-size="14.00">AppModule</text>
</g>
<!-- ConfigurationModule&#45;&gt;AppModule -->
<g id="edge1" class="edge">
<title>ConfigurationModule&#45;&gt;AppModule</title>
<path fill="none" stroke="black" d="M382,-84.91C382,-104.14 382,-131.8 382,-131.8 382,-131.8 298.97,-131.8 298.97,-131.8"/>
<polygon fill="black" stroke="black" points="298.97,-128.3 288.97,-131.8 298.97,-135.3 298.97,-128.3"/>
</g>
<!-- HealthModule -->
<g id="node2" class="node">
<title>HealthModule</title>
<polygon fill="#8dd3c7" stroke="black" points="295.37,-84.8 292.37,-88.8 271.37,-88.8 268.37,-84.8 198.63,-84.8 198.63,-48.8 295.37,-48.8 295.37,-84.8"/>
<text text-anchor="middle" x="247" y="-62.6" font-family="Times,serif" font-size="14.00">HealthModule</text>
</g>
<!-- HealthModule&#45;&gt;AppModule -->
<g id="edge2" class="edge">
<title>HealthModule&#45;&gt;AppModule</title>
<path fill="none" stroke="black" d="M247,-84.91C247,-84.91 247,-103.79 247,-103.79"/>
<polygon fill="black" stroke="black" points="243.5,-103.79 247,-113.79 250.5,-103.79 243.5,-103.79"/>
</g>
<!-- HealthUsersGrpcModule -->
<g id="node3" class="node">
<title>HealthUsersGrpcModule</title>
<polygon fill="#8dd3c7" stroke="black" points="180.24,-84.8 177.24,-88.8 156.24,-88.8 153.24,-84.8 23.76,-84.8 23.76,-48.8 180.24,-48.8 180.24,-84.8"/>
<text text-anchor="middle" x="102" y="-62.6" font-family="Times,serif" font-size="14.00">HealthUsersGrpcModule</text>
</g>
<!-- HealthUsersGrpcModule&#45;&gt;AppModule -->
<g id="edge3" class="edge">
<title>HealthUsersGrpcModule&#45;&gt;AppModule</title>
<path fill="none" stroke="black" d="M102,-84.91C102,-104.14 102,-131.8 102,-131.8 102,-131.8 195.06,-131.8 195.06,-131.8"/>
<polygon fill="black" stroke="black" points="195.06,-135.3 205.06,-131.8 195.06,-128.3 195.06,-135.3"/>
</g>
</g>
</svg>
