<?xml version="1.0" encoding="UTF-8" standalone="no"?>
<!DOCTYPE svg PUBLIC "-//W3C//DTD SVG 1.1//EN"
 "http://www.w3.org/Graphics/SVG/1.1/DTD/svg11.dtd">
<!-- Generated by graphviz version 5.0.0 (20220707.1540)
 -->
<!-- Title: dependencies Pages: 1 -->
<svg width="368pt" height="174pt"
 viewBox="0.00 0.00 368.00 173.80" xmlns="http://www.w3.org/2000/svg" xmlns:xlink="http://www.w3.org/1999/xlink">
<g id="graph0" class="graph" transform="scale(1 1) rotate(0) translate(4 169.8)">
<title>dependencies</title>
<polygon fill="white" stroke="transparent" points="-4,4 -4,-169.8 364,-169.8 364,4 -4,4"/>
<text text-anchor="middle" x="180" y="-8.2" font-family="sans-serif" font-size="14.00">dependencies</text>
<g id="clust1" class="cluster">
<title>cluster_HealthModule</title>
<polygon fill="none" stroke="black" stroke-dasharray="1,5" points="8,-32.8 8,-157.8 352,-157.8 352,-32.8 8,-32.8"/>
</g>
<g id="clust3" class="cluster">
<title>cluster_HealthModule_imports</title>
<polygon fill="none" stroke="black" points="16,-40.8 16,-92.8 344,-92.8 344,-40.8 16,-40.8"/>
</g>
<!-- ConfigurationModule -->
<g id="node1" class="node">
<title>ConfigurationModule</title>
<polygon fill="#8dd3c7" stroke="black" points="336.1,-84.8 333.1,-88.8 312.1,-88.8 309.1,-84.8 197.9,-84.8 197.9,-48.8 336.1,-48.8 336.1,-84.8"/>
<text text-anchor="middle" x="267" y="-62.6" font-family="Times,serif" font-size="14.00">ConfigurationModule</text>
</g>
<!-- HealthModule -->
<g id="node3" class="node">
<title>HealthModule</title>
<polygon fill="#8dd3c7" stroke="black" points="232.37,-149.8 229.37,-153.8 208.37,-153.8 205.37,-149.8 135.63,-149.8 135.63,-113.8 232.37,-113.8 232.37,-149.8"/>
<text text-anchor="middle" x="184" y="-127.6" font-family="Times,serif" font-size="14.00">HealthModule</text>
</g>
<!-- ConfigurationModule&#45;&gt;HealthModule -->
<g id="edge1" class="edge">
<title>ConfigurationModule&#45;&gt;HealthModule</title>
<path fill="none" stroke="black" d="M215.19,-84.91C215.19,-84.91 215.19,-103.79 215.19,-103.79"/>
<polygon fill="black" stroke="black" points="211.69,-103.79 215.19,-113.79 218.69,-103.79 211.69,-103.79"/>
</g>
<!-- HealthUsersGrpcModule -->
<g id="node2" class="node">
<title>HealthUsersGrpcModule</title>
<polygon fill="#8dd3c7" stroke="black" points="180.24,-84.8 177.24,-88.8 156.24,-88.8 153.24,-84.8 23.76,-84.8 23.76,-48.8 180.24,-48.8 180.24,-84.8"/>
<text text-anchor="middle" x="102" y="-62.6" font-family="Times,serif" font-size="14.00">HealthUsersGrpcModule</text>
</g>
<!-- HealthUsersGrpcModule&#45;&gt;HealthModule -->
<g id="edge2" class="edge">
<title>HealthUsersGrpcModule&#45;&gt;HealthModule</title>
<path fill="none" stroke="black" d="M157.97,-84.91C157.97,-84.91 157.97,-103.79 157.97,-103.79"/>
<polygon fill="black" stroke="black" points="154.47,-103.79 157.97,-113.79 161.47,-103.79 154.47,-103.79"/>
</g>
</g>
</svg>
