<?xml version="1.0" encoding="UTF-8" standalone="no"?>
<!DOCTYPE svg PUBLIC "-//W3C//DTD SVG 1.1//EN"
 "http://www.w3.org/Graphics/SVG/1.1/DTD/svg11.dtd">
<!-- Generated by graphviz version 5.0.0 (20220707.1540)
 -->
<!-- Title: dependencies Pages: 1 -->
<svg width="2564pt" height="174pt"
 viewBox="0.00 0.00 2564.00 173.80" xmlns="http://www.w3.org/2000/svg" xmlns:xlink="http://www.w3.org/1999/xlink">
<g id="graph0" class="graph" transform="scale(1 1) rotate(0) translate(4 169.8)">
<title>dependencies</title>
<polygon fill="white" stroke="transparent" points="-4,4 -4,-169.8 2560,-169.8 2560,4 -4,4"/>
<text text-anchor="middle" x="1278" y="-8.2" font-family="sans-serif" font-size="14.00">dependencies</text>
<g id="clust1" class="cluster">
<title>cluster_ConfigurationModule</title>
<polygon fill="none" stroke="black" stroke-dasharray="1,5" points="8,-32.8 8,-157.8 2548,-157.8 2548,-32.8 8,-32.8"/>
</g>
<g id="clust4" class="cluster">
<title>cluster_ConfigurationModule_exports</title>
<polygon fill="none" stroke="black" points="16,-97.8 16,-149.8 2540,-149.8 2540,-97.8 16,-97.8"/>
</g>
<!-- InjectionName.ACCESS_CONTROL_ALLOW_ORIGIN  -->
<g id="node1" class="node">
<title>InjectionName.ACCESS_CONTROL_ALLOW_ORIGIN </title>
<polygon fill="#fb8072" stroke="black" points="2531.74,-141.8 2186.26,-141.8 2186.26,-105.8 2531.74,-105.8 2531.74,-141.8"/>
<text text-anchor="middle" x="2359" y="-119.6" font-family="Times,serif" font-size="14.00">InjectionName.ACCESS_CONTROL_ALLOW_ORIGIN </text>
</g>
<!-- InjectionName.API_KEY  -->
<g id="node2" class="node">
<title>InjectionName.API_KEY </title>
<polygon fill="#fb8072" stroke="black" points="2168.02,-141.8 2003.98,-141.8 2003.98,-105.8 2168.02,-105.8 2168.02,-141.8"/>
<text text-anchor="middle" x="2086" y="-119.6" font-family="Times,serif" font-size="14.00">InjectionName.API_KEY </text>
</g>
<!-- InjectionName.API_KEY_HEADER_NAME  -->
<g id="node3" class="node">
<title>InjectionName.API_KEY_HEADER_NAME </title>
<polygon fill="#fb8072" stroke="black" points="1985.01,-141.8 1708.99,-141.8 1708.99,-105.8 1985.01,-105.8 1985.01,-141.8"/>
<text text-anchor="middle" x="1847" y="-119.6" font-family="Times,serif" font-size="14.00">InjectionName.API_KEY_HEADER_NAME </text>
</g>
<!-- InjectionName.HTTP_CHECKS  -->
<g id="node4" class="node">
<title>InjectionName.HTTP_CHECKS </title>
<polygon fill="#fb8072" stroke="black" points="1690.92,-141.8 1487.08,-141.8 1487.08,-105.8 1690.92,-105.8 1690.92,-141.8"/>
<text text-anchor="middle" x="1589" y="-119.6" font-family="Times,serif" font-size="14.00">InjectionName.HTTP_CHECKS </text>
</g>
<!-- InjectionName.PORT  -->
<g id="node5" class="node">
<title>InjectionName.PORT </title>
<polygon fill="#fb8072" stroke="black" points="1468.97,-141.8 1327.03,-141.8 1327.03,-105.8 1468.97,-105.8 1468.97,-141.8"/>
<text text-anchor="middle" x="1398" y="-119.6" font-family="Times,serif" font-size="14.00">InjectionName.PORT </text>
</g>
<!-- InjectionName.USERS_GRPC_SERVICE_API_KEY  -->
<g id="node6" class="node">
<title>InjectionName.USERS_GRPC_SERVICE_API_KEY </title>
<polygon fill="#fb8072" stroke="black" points="1309,-141.8 985,-141.8 985,-105.8 1309,-105.8 1309,-141.8"/>
<text text-anchor="middle" x="1147" y="-119.6" font-family="Times,serif" font-size="14.00">InjectionName.USERS_GRPC_SERVICE_API_KEY </text>
</g>
<!-- InjectionName.USERS_GRPC_SERVICE_URL  -->
<g id="node7" class="node">
<title>InjectionName.USERS_GRPC_SERVICE_URL </title>
<polygon fill="#fb8072" stroke="black" points="966.67,-141.8 673.33,-141.8 673.33,-105.8 966.67,-105.8 966.67,-141.8"/>
<text text-anchor="middle" x="820" y="-119.6" font-family="Times,serif" font-size="14.00">InjectionName.USERS_GRPC_SERVICE_URL </text>
</g>
<!-- InjectionName.USERS_SERVICE_REST_API_KEY  -->
<g id="node8" class="node">
<title>InjectionName.USERS_SERVICE_REST_API_KEY </title>
<polygon fill="#fb8072" stroke="black" points="654.66,-141.8 333.34,-141.8 333.34,-105.8 654.66,-105.8 654.66,-141.8"/>
<text text-anchor="middle" x="494" y="-119.6" font-family="Times,serif" font-size="14.00">InjectionName.USERS_SERVICE_REST_API_KEY </text>
</g>
<!-- InjectionName.USERS_SERVICE_REST_URL  -->
<g id="node9" class="node">
<title>InjectionName.USERS_SERVICE_REST_URL </title>
<polygon fill="#fb8072" stroke="black" points="315.82,-141.8 24.18,-141.8 24.18,-105.8 315.82,-105.8 315.82,-141.8"/>
<text text-anchor="middle" x="170" y="-119.6" font-family="Times,serif" font-size="14.00">InjectionName.USERS_SERVICE_REST_URL </text>
</g>
<!-- ConfigurationModule -->
<g id="node10" class="node">
<title>ConfigurationModule</title>
<polygon fill="#8dd3c7" stroke="black" points="1467.1,-76.8 1464.1,-80.8 1443.1,-80.8 1440.1,-76.8 1328.9,-76.8 1328.9,-40.8 1467.1,-40.8 1467.1,-76.8"/>
<text text-anchor="middle" x="1398" y="-54.6" font-family="Times,serif" font-size="14.00">ConfigurationModule</text>
</g>
<!-- ConfigurationModule&#45;&gt;InjectionName.ACCESS_CONTROL_ALLOW_ORIGIN  -->
<g id="edge1" class="edge">
<title>ConfigurationModule&#45;&gt;InjectionName.ACCESS_CONTROL_ALLOW_ORIGIN </title>
<path fill="none" stroke="black" stroke-dasharray="5,2" d="M1467.11,-48.8C1687.46,-48.8 2359,-48.8 2359,-48.8 2359,-48.8 2359,-95.64 2359,-95.64"/>
<polygon fill="black" stroke="black" points="2355.5,-95.64 2359,-105.64 2362.5,-95.64 2355.5,-95.64"/>
</g>
<!-- ConfigurationModule&#45;&gt;InjectionName.API_KEY  -->
<g id="edge2" class="edge">
<title>ConfigurationModule&#45;&gt;InjectionName.API_KEY </title>
<path fill="none" stroke="black" stroke-dasharray="5,2" d="M1467.12,-55.8C1641.59,-55.8 2086,-55.8 2086,-55.8 2086,-55.8 2086,-95.58 2086,-95.58"/>
<polygon fill="black" stroke="black" points="2082.5,-95.58 2086,-105.58 2089.5,-95.58 2082.5,-95.58"/>
</g>
<!-- ConfigurationModule&#45;&gt;InjectionName.API_KEY_HEADER_NAME  -->
<g id="edge3" class="edge">
<title>ConfigurationModule&#45;&gt;InjectionName.API_KEY_HEADER_NAME </title>
<path fill="none" stroke="black" stroke-dasharray="5,2" d="M1467.17,-62.8C1593.12,-62.8 1847,-62.8 1847,-62.8 1847,-62.8 1847,-95.5 1847,-95.5"/>
<polygon fill="black" stroke="black" points="1843.5,-95.5 1847,-105.5 1850.5,-95.5 1843.5,-95.5"/>
</g>
<!-- ConfigurationModule&#45;&gt;InjectionName.HTTP_CHECKS  -->
<g id="edge4" class="edge">
<title>ConfigurationModule&#45;&gt;InjectionName.HTTP_CHECKS </title>
<path fill="none" stroke="black" stroke-dasharray="5,2" d="M1467.23,-69.8C1521.89,-69.8 1589,-69.8 1589,-69.8 1589,-69.8 1589,-95.52 1589,-95.52"/>
<polygon fill="black" stroke="black" points="1585.5,-95.52 1589,-105.52 1592.5,-95.52 1585.5,-95.52"/>
</g>
<!-- ConfigurationModule&#45;&gt;InjectionName.PORT  -->
<g id="edge5" class="edge">
<title>ConfigurationModule&#45;&gt;InjectionName.PORT </title>
<path fill="none" stroke="black" stroke-dasharray="5,2" d="M1398,-76.91C1398,-76.91 1398,-95.79 1398,-95.79"/>
<polygon fill="black" stroke="black" points="1394.5,-95.79 1398,-105.79 1401.5,-95.79 1394.5,-95.79"/>
</g>
<!-- ConfigurationModule&#45;&gt;InjectionName.USERS_GRPC_SERVICE_API_KEY  -->
<g id="edge6" class="edge">
<title>ConfigurationModule&#45;&gt;InjectionName.USERS_GRPC_SERVICE_API_KEY </title>
<path fill="none" stroke="black" stroke-dasharray="5,2" d="M1328.75,-69.8C1254.45,-69.8 1147,-69.8 1147,-69.8 1147,-69.8 1147,-95.52 1147,-95.52"/>
<polygon fill="black" stroke="black" points="1143.5,-95.52 1147,-105.52 1150.5,-95.52 1143.5,-95.52"/>
</g>
<!-- ConfigurationModule&#45;&gt;InjectionName.USERS_GRPC_SERVICE_URL  -->
<g id="edge7" class="edge">
<title>ConfigurationModule&#45;&gt;InjectionName.USERS_GRPC_SERVICE_URL </title>
<path fill="none" stroke="black" stroke-dasharray="5,2" d="M1328.85,-62.8C1175.43,-62.8 820,-62.8 820,-62.8 820,-62.8 820,-95.5 820,-95.5"/>
<polygon fill="black" stroke="black" points="816.5,-95.5 820,-105.5 823.5,-95.5 816.5,-95.5"/>
</g>
<!-- ConfigurationModule&#45;&gt;InjectionName.USERS_SERVICE_REST_API_KEY  -->
<g id="edge8" class="edge">
<title>ConfigurationModule&#45;&gt;InjectionName.USERS_SERVICE_REST_API_KEY </title>
<path fill="none" stroke="black" stroke-dasharray="5,2" d="M1328.94,-55.8C1117.62,-55.8 494,-55.8 494,-55.8 494,-55.8 494,-95.58 494,-95.58"/>
<polygon fill="black" stroke="black" points="490.5,-95.58 494,-105.58 497.5,-95.58 490.5,-95.58"/>
</g>
<!-- ConfigurationModule&#45;&gt;InjectionName.USERS_SERVICE_REST_URL  -->
<g id="edge9" class="edge">
<title>ConfigurationModule&#45;&gt;InjectionName.USERS_SERVICE_REST_URL </title>
<path fill="none" stroke="black" stroke-dasharray="5,2" d="M1328.9,-48.8C1069.71,-48.8 170,-48.8 170,-48.8 170,-48.8 170,-95.64 170,-95.64"/>
<polygon fill="black" stroke="black" points="166.5,-95.64 170,-105.64 173.5,-95.64 166.5,-95.64"/>
</g>
</g>
</svg>
