<?xml version="1.0" encoding="UTF-8" standalone="no"?>
<!DOCTYPE svg PUBLIC "-//W3C//DTD SVG 1.1//EN"
 "http://www.w3.org/Graphics/SVG/1.1/DTD/svg11.dtd">
<!-- Generated by graphviz version 5.0.0 (20220707.1540)
 -->
<!-- Title: dependencies Pages: 1 -->
<svg width="2381pt" height="174pt"
 viewBox="0.00 0.00 2381.00 173.80" xmlns="http://www.w3.org/2000/svg" xmlns:xlink="http://www.w3.org/1999/xlink">
<g id="graph0" class="graph" transform="scale(1 1) rotate(0) translate(4 169.8)">
<title>dependencies</title>
<polygon fill="white" stroke="transparent" points="-4,4 -4,-169.8 2377,-169.8 2377,4 -4,4"/>
<text text-anchor="middle" x="1186.5" y="-8.2" font-family="sans-serif" font-size="14.00">dependencies</text>
<g id="clust1" class="cluster">
<title>cluster_ConfigurationModule</title>
<polygon fill="none" stroke="black" stroke-dasharray="1,5" points="8,-32.8 8,-157.8 2365,-157.8 2365,-32.8 8,-32.8"/>
</g>
<g id="clust4" class="cluster">
<title>cluster_ConfigurationModule_exports</title>
<polygon fill="none" stroke="black" points="16,-97.8 16,-149.8 2357,-149.8 2357,-97.8 16,-97.8"/>
</g>
<!-- InjectionName.ACCESS_CONTROL_ALLOW_ORIGIN  -->
<g id="node1" class="node">
<title>InjectionName.ACCESS_CONTROL_ALLOW_ORIGIN </title>
<polygon fill="#fb8072" stroke="black" points="2348.74,-141.8 2003.26,-141.8 2003.26,-105.8 2348.74,-105.8 2348.74,-141.8"/>
<text text-anchor="middle" x="2176" y="-119.6" font-family="Times,serif" font-size="14.00">InjectionName.ACCESS_CONTROL_ALLOW_ORIGIN </text>
</g>
<!-- InjectionName.API_KEY_HEADER_NAME  -->
<g id="node2" class="node">
<title>InjectionName.API_KEY_HEADER_NAME </title>
<polygon fill="#fb8072" stroke="black" points="1985.01,-141.8 1708.99,-141.8 1708.99,-105.8 1985.01,-105.8 1985.01,-141.8"/>
<text text-anchor="middle" x="1847" y="-119.6" font-family="Times,serif" font-size="14.00">InjectionName.API_KEY_HEADER_NAME </text>
</g>
<!-- InjectionName.HTTP_CHECKS  -->
<g id="node3" class="node">
<title>InjectionName.HTTP_CHECKS </title>
<polygon fill="#fb8072" stroke="black" points="1690.92,-141.8 1487.08,-141.8 1487.08,-105.8 1690.92,-105.8 1690.92,-141.8"/>
<text text-anchor="middle" x="1589" y="-119.6" font-family="Times,serif" font-size="14.00">InjectionName.HTTP_CHECKS </text>
</g>
<!-- InjectionName.PORT  -->
<g id="node4" class="node">
<title>InjectionName.PORT </title>
<polygon fill="#fb8072" stroke="black" points="1468.97,-141.8 1327.03,-141.8 1327.03,-105.8 1468.97,-105.8 1468.97,-141.8"/>
<text text-anchor="middle" x="1398" y="-119.6" font-family="Times,serif" font-size="14.00">InjectionName.PORT </text>
</g>
<!-- InjectionName.USERS_GRPC_SERVICE_API_KEY  -->
<g id="node5" class="node">
<title>InjectionName.USERS_GRPC_SERVICE_API_KEY </title>
<polygon fill="#fb8072" stroke="black" points="1309,-141.8 985,-141.8 985,-105.8 1309,-105.8 1309,-141.8"/>
<text text-anchor="middle" x="1147" y="-119.6" font-family="Times,serif" font-size="14.00">InjectionName.USERS_GRPC_SERVICE_API_KEY </text>
</g>
<!-- InjectionName.USERS_GRPC_SERVICE_URL  -->
<g id="node6" class="node">
<title>InjectionName.USERS_GRPC_SERVICE_URL </title>
<polygon fill="#fb8072" stroke="black" points="966.67,-141.8 673.33,-141.8 673.33,-105.8 966.67,-105.8 966.67,-141.8"/>
<text text-anchor="middle" x="820" y="-119.6" font-family="Times,serif" font-size="14.00">InjectionName.USERS_GRPC_SERVICE_URL </text>
</g>
<!-- InjectionName.USERS_SERVICE_REST_API_KEY  -->
<g id="node7" class="node">
<title>InjectionName.USERS_SERVICE_REST_API_KEY </title>
<polygon fill="#fb8072" stroke="black" points="654.66,-141.8 333.34,-141.8 333.34,-105.8 654.66,-105.8 654.66,-141.8"/>
<text text-anchor="middle" x="494" y="-119.6" font-family="Times,serif" font-size="14.00">InjectionName.USERS_SERVICE_REST_API_KEY </text>
</g>
<!-- InjectionName.USERS_SERVICE_REST_URL  -->
<g id="node8" class="node">
<title>InjectionName.USERS_SERVICE_REST_URL </title>
<polygon fill="#fb8072" stroke="black" points="315.82,-141.8 24.18,-141.8 24.18,-105.8 315.82,-105.8 315.82,-141.8"/>
<text text-anchor="middle" x="170" y="-119.6" font-family="Times,serif" font-size="14.00">InjectionName.USERS_SERVICE_REST_URL </text>
</g>
<!-- ConfigurationModule -->
<g id="node9" class="node">
<title>ConfigurationModule</title>
<polygon fill="#8dd3c7" stroke="black" points="1341.1,-76.8 1338.1,-80.8 1317.1,-80.8 1314.1,-76.8 1202.9,-76.8 1202.9,-40.8 1341.1,-40.8 1341.1,-76.8"/>
<text text-anchor="middle" x="1272" y="-54.6" font-family="Times,serif" font-size="14.00">ConfigurationModule</text>
</g>
<!-- ConfigurationModule&#45;&gt;InjectionName.ACCESS_CONTROL_ALLOW_ORIGIN  -->
<g id="edge1" class="edge">
<title>ConfigurationModule&#45;&gt;InjectionName.ACCESS_CONTROL_ALLOW_ORIGIN </title>
<path fill="none" stroke="black" stroke-dasharray="5,2" d="M1341.06,-49.8C1552.38,-49.8 2176,-49.8 2176,-49.8 2176,-49.8 2176,-95.51 2176,-95.51"/>
<polygon fill="black" stroke="black" points="2172.5,-95.51 2176,-105.51 2179.5,-95.51 2172.5,-95.51"/>
</g>
<!-- ConfigurationModule&#45;&gt;InjectionName.API_KEY_HEADER_NAME  -->
<g id="edge2" class="edge">
<title>ConfigurationModule&#45;&gt;InjectionName.API_KEY_HEADER_NAME </title>
<path fill="none" stroke="black" stroke-dasharray="5,2" d="M1341.07,-58.8C1493.85,-58.8 1847,-58.8 1847,-58.8 1847,-58.8 1847,-95.69 1847,-95.69"/>
<polygon fill="black" stroke="black" points="1843.5,-95.69 1847,-105.69 1850.5,-95.69 1843.5,-95.69"/>
</g>
<!-- ConfigurationModule&#45;&gt;InjectionName.HTTP_CHECKS  -->
<g id="edge3" class="edge">
<title>ConfigurationModule&#45;&gt;InjectionName.HTTP_CHECKS </title>
<path fill="none" stroke="black" stroke-dasharray="5,2" d="M1341.18,-67.8C1434.45,-67.8 1589,-67.8 1589,-67.8 1589,-67.8 1589,-95.77 1589,-95.77"/>
<polygon fill="black" stroke="black" points="1585.5,-95.77 1589,-105.77 1592.5,-95.77 1585.5,-95.77"/>
</g>
<!-- ConfigurationModule&#45;&gt;InjectionName.PORT  -->
<g id="edge4" class="edge">
<title>ConfigurationModule&#45;&gt;InjectionName.PORT </title>
<path fill="none" stroke="black" stroke-dasharray="5,2" d="M1334.03,-76.91C1334.03,-76.91 1334.03,-95.79 1334.03,-95.79"/>
<polygon fill="black" stroke="black" points="1330.53,-95.79 1334.03,-105.79 1337.53,-95.79 1330.53,-95.79"/>
</g>
<!-- ConfigurationModule&#45;&gt;InjectionName.USERS_GRPC_SERVICE_API_KEY  -->
<g id="edge5" class="edge">
<title>ConfigurationModule&#45;&gt;InjectionName.USERS_GRPC_SERVICE_API_KEY </title>
<path fill="none" stroke="black" stroke-dasharray="5,2" d="M1255.98,-76.91C1255.98,-76.91 1255.98,-95.79 1255.98,-95.79"/>
<polygon fill="black" stroke="black" points="1252.48,-95.79 1255.98,-105.79 1259.48,-95.79 1252.48,-95.79"/>
</g>
<!-- ConfigurationModule&#45;&gt;InjectionName.USERS_GRPC_SERVICE_URL  -->
<g id="edge6" class="edge">
<title>ConfigurationModule&#45;&gt;InjectionName.USERS_GRPC_SERVICE_URL </title>
<path fill="none" stroke="black" stroke-dasharray="5,2" d="M1202.86,-67.8C1076.24,-67.8 820,-67.8 820,-67.8 820,-67.8 820,-95.77 820,-95.77"/>
<polygon fill="black" stroke="black" points="816.5,-95.77 820,-105.77 823.5,-95.77 816.5,-95.77"/>
</g>
<!-- ConfigurationModule&#45;&gt;InjectionName.USERS_SERVICE_REST_API_KEY  -->
<g id="edge7" class="edge">
<title>ConfigurationModule&#45;&gt;InjectionName.USERS_SERVICE_REST_API_KEY </title>
<path fill="none" stroke="black" stroke-dasharray="5,2" d="M1202.62,-58.8C1011.93,-58.8 494,-58.8 494,-58.8 494,-58.8 494,-95.69 494,-95.69"/>
<polygon fill="black" stroke="black" points="490.5,-95.69 494,-105.69 497.5,-95.69 490.5,-95.69"/>
</g>
<!-- ConfigurationModule&#45;&gt;InjectionName.USERS_SERVICE_REST_URL  -->
<g id="edge8" class="edge">
<title>ConfigurationModule&#45;&gt;InjectionName.USERS_SERVICE_REST_URL </title>
<path fill="none" stroke="black" stroke-dasharray="5,2" d="M1202.65,-49.8C960.9,-49.8 170,-49.8 170,-49.8 170,-49.8 170,-95.51 170,-95.51"/>
<polygon fill="black" stroke="black" points="166.5,-95.51 170,-105.51 173.5,-95.51 166.5,-95.51"/>
</g>
</g>
</svg>
