<?xml version="1.0" encoding="UTF-8" standalone="no"?>
<!DOCTYPE svg PUBLIC "-//W3C//DTD SVG 1.1//EN"
 "http://www.w3.org/Graphics/SVG/1.1/DTD/svg11.dtd">
<!-- Generated by graphviz version 5.0.0 (20220707.1540)
 -->
<!-- Title: dependencies Pages: 1 -->
<svg width="3256pt" height="174pt"
 viewBox="0.00 0.00 3256.00 173.80" xmlns="http://www.w3.org/2000/svg" xmlns:xlink="http://www.w3.org/1999/xlink">
<g id="graph0" class="graph" transform="scale(1 1) rotate(0) translate(4 169.8)">
<title>dependencies</title>
<polygon fill="white" stroke="transparent" points="-4,4 -4,-169.8 3252,-169.8 3252,4 -4,4"/>
<text text-anchor="middle" x="1624" y="-8.2" font-family="sans-serif" font-size="14.00">dependencies</text>
<g id="clust1" class="cluster">
<title>cluster_ConfigurationModule</title>
<polygon fill="none" stroke="black" stroke-dasharray="1,5" points="8,-32.8 8,-157.8 3240,-157.8 3240,-32.8 8,-32.8"/>
</g>
<g id="clust4" class="cluster">
<title>cluster_ConfigurationModule_exports</title>
<polygon fill="none" stroke="black" points="16,-97.8 16,-149.8 3232,-149.8 3232,-97.8 16,-97.8"/>
</g>
<!-- InjectionName.ACCESS_CONTROL_ALLOW_ORIGIN  -->
<g id="node1" class="node">
<title>InjectionName.ACCESS_CONTROL_ALLOW_ORIGIN </title>
<polygon fill="#fb8072" stroke="black" points="3223.74,-141.8 2878.26,-141.8 2878.26,-105.8 3223.74,-105.8 3223.74,-141.8"/>
<text text-anchor="middle" x="3051" y="-119.6" font-family="Times,serif" font-size="14.00">InjectionName.ACCESS_CONTROL_ALLOW_ORIGIN </text>
</g>
<!-- InjectionName.API_KEY  -->
<g id="node2" class="node">
<title>InjectionName.API_KEY </title>
<polygon fill="#fb8072" stroke="black" points="2860.02,-141.8 2695.98,-141.8 2695.98,-105.8 2860.02,-105.8 2860.02,-141.8"/>
<text text-anchor="middle" x="2778" y="-119.6" font-family="Times,serif" font-size="14.00">InjectionName.API_KEY </text>
</g>
<!-- InjectionName.API_KEY_HEADER_NAME  -->
<g id="node3" class="node">
<title>InjectionName.API_KEY_HEADER_NAME </title>
<polygon fill="#fb8072" stroke="black" points="2677.01,-141.8 2400.99,-141.8 2400.99,-105.8 2677.01,-105.8 2677.01,-141.8"/>
<text text-anchor="middle" x="2539" y="-119.6" font-family="Times,serif" font-size="14.00">InjectionName.API_KEY_HEADER_NAME </text>
</g>
<!-- InjectionName.AUTHENTICATION_SERVICE  -->
<g id="node4" class="node">
<title>InjectionName.AUTHENTICATION_SERVICE </title>
<polygon fill="#fb8072" stroke="black" points="2382.67,-141.8 2087.33,-141.8 2087.33,-105.8 2382.67,-105.8 2382.67,-141.8"/>
<text text-anchor="middle" x="2235" y="-119.6" font-family="Times,serif" font-size="14.00">InjectionName.AUTHENTICATION_SERVICE </text>
</g>
<!-- InjectionName.AUTHENTICATION_SERVICE_API_KEY  -->
<g id="node5" class="node">
<title>InjectionName.AUTHENTICATION_SERVICE_API_KEY </title>
<polygon fill="#fb8072" stroke="black" points="2069.5,-141.8 1708.5,-141.8 1708.5,-105.8 2069.5,-105.8 2069.5,-141.8"/>
<text text-anchor="middle" x="1889" y="-119.6" font-family="Times,serif" font-size="14.00">InjectionName.AUTHENTICATION_SERVICE_API_KEY </text>
</g>
<!-- InjectionName.HTTP_CHECKS  -->
<g id="node6" class="node">
<title>InjectionName.HTTP_CHECKS </title>
<polygon fill="#fb8072" stroke="black" points="1690.92,-141.8 1487.08,-141.8 1487.08,-105.8 1690.92,-105.8 1690.92,-141.8"/>
<text text-anchor="middle" x="1589" y="-119.6" font-family="Times,serif" font-size="14.00">InjectionName.HTTP_CHECKS </text>
</g>
<!-- InjectionName.PORT  -->
<g id="node7" class="node">
<title>InjectionName.PORT </title>
<polygon fill="#fb8072" stroke="black" points="1468.97,-141.8 1327.03,-141.8 1327.03,-105.8 1468.97,-105.8 1468.97,-141.8"/>
<text text-anchor="middle" x="1398" y="-119.6" font-family="Times,serif" font-size="14.00">InjectionName.PORT </text>
</g>
<!-- InjectionName.USERS_GRPC_SERVICE_API_KEY  -->
<g id="node8" class="node">
<title>InjectionName.USERS_GRPC_SERVICE_API_KEY </title>
<polygon fill="#fb8072" stroke="black" points="1309,-141.8 985,-141.8 985,-105.8 1309,-105.8 1309,-141.8"/>
<text text-anchor="middle" x="1147" y="-119.6" font-family="Times,serif" font-size="14.00">InjectionName.USERS_GRPC_SERVICE_API_KEY </text>
</g>
<!-- InjectionName.USERS_GRPC_SERVICE_URL  -->
<g id="node9" class="node">
<title>InjectionName.USERS_GRPC_SERVICE_URL </title>
<polygon fill="#fb8072" stroke="black" points="966.67,-141.8 673.33,-141.8 673.33,-105.8 966.67,-105.8 966.67,-141.8"/>
<text text-anchor="middle" x="820" y="-119.6" font-family="Times,serif" font-size="14.00">InjectionName.USERS_GRPC_SERVICE_URL </text>
</g>
<!-- InjectionName.USERS_SERVICE_REST_API_KEY  -->
<g id="node10" class="node">
<title>InjectionName.USERS_SERVICE_REST_API_KEY </title>
<polygon fill="#fb8072" stroke="black" points="654.66,-141.8 333.34,-141.8 333.34,-105.8 654.66,-105.8 654.66,-141.8"/>
<text text-anchor="middle" x="494" y="-119.6" font-family="Times,serif" font-size="14.00">InjectionName.USERS_SERVICE_REST_API_KEY </text>
</g>
<!-- InjectionName.USERS_SERVICE_REST_URL  -->
<g id="node11" class="node">
<title>InjectionName.USERS_SERVICE_REST_URL </title>
<polygon fill="#fb8072" stroke="black" points="315.82,-141.8 24.18,-141.8 24.18,-105.8 315.82,-105.8 315.82,-141.8"/>
<text text-anchor="middle" x="170" y="-119.6" font-family="Times,serif" font-size="14.00">InjectionName.USERS_SERVICE_REST_URL </text>
</g>
<!-- ConfigurationModule -->
<g id="node12" class="node">
<title>ConfigurationModule</title>
<polygon fill="#8dd3c7" stroke="black" points="1658.1,-76.8 1655.1,-80.8 1634.1,-80.8 1631.1,-76.8 1519.9,-76.8 1519.9,-40.8 1658.1,-40.8 1658.1,-76.8"/>
<text text-anchor="middle" x="1589" y="-54.6" font-family="Times,serif" font-size="14.00">ConfigurationModule</text>
</g>
<!-- ConfigurationModule&#45;&gt;InjectionName.ACCESS_CONTROL_ALLOW_ORIGIN  -->
<g id="edge1" class="edge">
<title>ConfigurationModule&#45;&gt;InjectionName.ACCESS_CONTROL_ALLOW_ORIGIN </title>
<path fill="none" stroke="black" stroke-dasharray="5,2" d="M1658.53,-46.8C1949.08,-46.8 3051,-46.8 3051,-46.8 3051,-46.8 3051,-95.55 3051,-95.55"/>
<polygon fill="black" stroke="black" points="3047.5,-95.55 3051,-105.55 3054.5,-95.55 3047.5,-95.55"/>
</g>
<!-- ConfigurationModule&#45;&gt;InjectionName.API_KEY  -->
<g id="edge2" class="edge">
<title>ConfigurationModule&#45;&gt;InjectionName.API_KEY </title>
<path fill="none" stroke="black" stroke-dasharray="5,2" d="M1658.06,-52.8C1911.83,-52.8 2778,-52.8 2778,-52.8 2778,-52.8 2778,-95.52 2778,-95.52"/>
<polygon fill="black" stroke="black" points="2774.5,-95.52 2778,-105.52 2781.5,-95.52 2774.5,-95.52"/>
</g>
<!-- ConfigurationModule&#45;&gt;InjectionName.API_KEY_HEADER_NAME  -->
<g id="edge3" class="edge">
<title>ConfigurationModule&#45;&gt;InjectionName.API_KEY_HEADER_NAME </title>
<path fill="none" stroke="black" stroke-dasharray="5,2" d="M1658.09,-58.8C1876.7,-58.8 2539,-58.8 2539,-58.8 2539,-58.8 2539,-95.69 2539,-95.69"/>
<polygon fill="black" stroke="black" points="2535.5,-95.69 2539,-105.69 2542.5,-95.69 2535.5,-95.69"/>
</g>
<!-- ConfigurationModule&#45;&gt;InjectionName.AUTHENTICATION_SERVICE  -->
<g id="edge4" class="edge">
<title>ConfigurationModule&#45;&gt;InjectionName.AUTHENTICATION_SERVICE </title>
<path fill="none" stroke="black" stroke-dasharray="5,2" d="M1658.13,-64.8C1824.78,-64.8 2235,-64.8 2235,-64.8 2235,-64.8 2235,-95.78 2235,-95.78"/>
<polygon fill="black" stroke="black" points="2231.5,-95.78 2235,-105.78 2238.5,-95.78 2231.5,-95.78"/>
</g>
<!-- ConfigurationModule&#45;&gt;InjectionName.AUTHENTICATION_SERVICE_API_KEY  -->
<g id="edge5" class="edge">
<title>ConfigurationModule&#45;&gt;InjectionName.AUTHENTICATION_SERVICE_API_KEY </title>
<path fill="none" stroke="black" stroke-dasharray="5,2" d="M1658.2,-70.8C1746.8,-70.8 1889,-70.8 1889,-70.8 1889,-70.8 1889,-95.56 1889,-95.56"/>
<polygon fill="black" stroke="black" points="1885.5,-95.56 1889,-105.56 1892.5,-95.56 1885.5,-95.56"/>
</g>
<!-- ConfigurationModule&#45;&gt;InjectionName.HTTP_CHECKS  -->
<g id="edge6" class="edge">
<title>ConfigurationModule&#45;&gt;InjectionName.HTTP_CHECKS </title>
<path fill="none" stroke="black" stroke-dasharray="5,2" d="M1589,-76.91C1589,-76.91 1589,-95.79 1589,-95.79"/>
<polygon fill="black" stroke="black" points="1585.5,-95.79 1589,-105.79 1592.5,-95.79 1585.5,-95.79"/>
</g>
<!-- ConfigurationModule&#45;&gt;InjectionName.PORT  -->
<g id="edge7" class="edge">
<title>ConfigurationModule&#45;&gt;InjectionName.PORT </title>
<path fill="none" stroke="black" stroke-dasharray="5,2" d="M1519.77,-70.8C1465.11,-70.8 1398,-70.8 1398,-70.8 1398,-70.8 1398,-95.56 1398,-95.56"/>
<polygon fill="black" stroke="black" points="1394.5,-95.56 1398,-105.56 1401.5,-95.56 1394.5,-95.56"/>
</g>
<!-- ConfigurationModule&#45;&gt;InjectionName.USERS_GRPC_SERVICE_API_KEY  -->
<g id="edge8" class="edge">
<title>ConfigurationModule&#45;&gt;InjectionName.USERS_GRPC_SERVICE_API_KEY </title>
<path fill="none" stroke="black" stroke-dasharray="5,2" d="M1519.94,-64.8C1395.62,-64.8 1147,-64.8 1147,-64.8 1147,-64.8 1147,-95.78 1147,-95.78"/>
<polygon fill="black" stroke="black" points="1143.5,-95.78 1147,-105.78 1150.5,-95.78 1143.5,-95.78"/>
</g>
<!-- ConfigurationModule&#45;&gt;InjectionName.USERS_GRPC_SERVICE_URL  -->
<g id="edge9" class="edge">
<title>ConfigurationModule&#45;&gt;InjectionName.USERS_GRPC_SERVICE_URL </title>
<path fill="none" stroke="black" stroke-dasharray="5,2" d="M1519.74,-58.8C1330.72,-58.8 820,-58.8 820,-58.8 820,-58.8 820,-95.69 820,-95.69"/>
<polygon fill="black" stroke="black" points="816.5,-95.69 820,-105.69 823.5,-95.69 816.5,-95.69"/>
</g>
<!-- ConfigurationModule&#45;&gt;InjectionName.USERS_SERVICE_REST_API_KEY  -->
<g id="edge10" class="edge">
<title>ConfigurationModule&#45;&gt;InjectionName.USERS_SERVICE_REST_API_KEY </title>
<path fill="none" stroke="black" stroke-dasharray="5,2" d="M1519.67,-52.8C1278.97,-52.8 494,-52.8 494,-52.8 494,-52.8 494,-95.52 494,-95.52"/>
<polygon fill="black" stroke="black" points="490.5,-95.52 494,-105.52 497.5,-95.52 490.5,-95.52"/>
</g>
<!-- ConfigurationModule&#45;&gt;InjectionName.USERS_SERVICE_REST_URL  -->
<g id="edge11" class="edge">
<title>ConfigurationModule&#45;&gt;InjectionName.USERS_SERVICE_REST_URL </title>
<path fill="none" stroke="black" stroke-dasharray="5,2" d="M1519.6,-46.8C1234.71,-46.8 170,-46.8 170,-46.8 170,-46.8 170,-95.55 170,-95.55"/>
<polygon fill="black" stroke="black" points="166.5,-95.55 170,-105.55 173.5,-95.55 166.5,-95.55"/>
</g>
</g>
</svg>
